<?xml version="1.0" encoding="utf-8"?>
<!-- Generator: Adobe Illustrator 22.1.0, SVG Export Plug-In . SVG Version: 6.00 Build 0)  -->
<svg version="1.1" id="Layer_1" xmlns="http://www.w3.org/2000/svg" xmlns:xlink="http://www.w3.org/1999/xlink" x="0px" y="0px"
	 viewBox="0 0 1024 768" style="enable-background:new 0 0 1024 768;" xml:space="preserve">
<style type="text/css">
	.st0{fill:#3E3832;}
</style>
<g>
	<path class="st0" d="M510.7,455.6v-86.8c0-1.6,1.3-2.9,2.9-2.9h7.5c1,0,2,0.6,2.5,1.5l32.6,56.7l10,19.2h0.6
		c-0.3-4.7-0.6-9.6-0.9-14.6c-0.3-5-0.5-10-0.5-14.9v-44.9c0-1.6,1.3-2.9,2.9-2.9h5.3c1.6,0,2.9,1.3,2.9,2.9v86.8
		c0,1.6-1.3,2.9-2.9,2.9h-7.5c-1,0-2-0.6-2.5-1.5l-32.7-56.8l-10-19.1h-0.6c0.6,7.1,1.1,14.4,1.5,21.8c0,0.1,0,0.1,0,0.2v52.4
		c0,1.6-1.3,2.9-2.9,2.9h-5.3C512,458.5,510.7,457.2,510.7,455.6z"/>
	<path class="st0" d="M641.8,375.5h-0.6c-1.3,4.8-21,68.7-24.8,81c-0.4,1.2-1.5,2-2.8,2h-5.8c-2,0-3.4-2-2.8-3.8l29.4-86.8
		c0.4-1.2,1.5-2,2.8-2h9.1c1.2,0,2.4,0.8,2.8,2l29.4,86.8c0.6,1.9-0.8,3.8-2.8,3.8h-6.4c-1.3,0-2.4-0.8-2.8-2
		C662.8,444.2,643.2,380.3,641.8,375.5z"/>
	<path class="st0" d="M707,455.6v-86.8c0-1.6,1.3-2.9,2.9-2.9h5.9c1.6,0,2.9,1.3,2.9,2.9v86.8c0,1.6-1.3,2.9-2.9,2.9h-5.9
		C708.3,458.5,707,457.2,707,455.6z"/>
	<path class="st0" d="M780.5,460.2c-6.5,0-12.5-1.2-18.1-3.7c-4.7-2.1-8.8-4.8-12.5-8.1c-1.1-1-1.2-2.8-0.2-4l3.3-3.8
		c1-1.2,2.9-1.4,4.1-0.3c2.8,2.6,6,4.7,9.6,6.4c4.5,2.1,9.1,3.2,13.9,3.2c6.1,0,10.9-1.4,14.3-4.2c3.4-2.8,5.1-6.4,5.1-10.9
		c0-2.4-0.4-4.4-1.2-6s-1.9-3.1-3.2-4.2c-1.4-1.2-3-2.2-4.9-3.2c-1.9-0.9-3.9-1.9-6.1-3l-13.3-5.8c-2.2-0.9-4.4-2.1-6.6-3.4
		c-2.3-1.3-4.3-2.9-6.1-4.8s-3.2-4.1-4.4-6.7c-1.1-2.6-1.7-5.6-1.7-9c0-3.5,0.7-6.7,2.2-9.7s3.5-5.6,6.1-7.8
		c2.6-2.2,5.6-3.9,9.2-5.2c3.5-1.2,7.4-1.8,11.6-1.8c5.6,0,10.7,1.1,15.4,3.2c3.8,1.7,7.1,3.8,10,6.4c1.2,1,1.2,2.8,0.2,4l-2.7,3.3
		c-1,1.2-2.8,1.3-4,0.3c-2.2-1.8-4.6-3.3-7.2-4.5c-3.4-1.6-7.3-2.3-11.6-2.3c-5.2,0-9.3,1.2-12.5,3.6s-4.7,5.7-4.7,10
		c0,2.3,0.4,4.2,1.3,5.7c0.9,1.6,2.1,2.9,3.6,4.1s3.2,2.2,4.9,3.1c1.8,0.9,3.6,1.7,5.5,2.5l13.1,5.6c2.6,1.1,5.1,2.4,7.5,3.9
		s4.4,3.2,6.1,5.1c1.7,1.9,3,4.2,4,6.8c1,2.6,1.5,5.6,1.5,9c0,3.7-0.7,7.1-2.2,10.3c-1.5,3.2-3.6,6-6.3,8.4s-6,4.3-9.9,5.6
		C789.8,459.5,785.4,460.2,780.5,460.2z"/>
</g>
<path class="st0" d="M211.4,320.8c-0.9,1.7-3.4,0.8-3.1-1.1L248,139.2c0.5-2.4,3.6-3.3,5.2-1.3l31.6,37.5c1.4,1.7,1.7,4,0.7,6
	L211.4,320.8z"/>
<path class="st0" d="M183.4,360.4c-0.6,2.8-4.7,2.3-4.7-0.5v-168c0-2.2,2.6-3.3,4.2-1.9l28.2,25.3c1.3,1.2,1.9,3,1.6,4.8
	L183.4,360.4z"/>
<path class="st0" d="M458.7,419.8h-57.1c-2.6,0-5,1.4-6.3,3.6l-30.4,48.9c-1.3,2.2-3.7,3.6-6.3,3.6h-65.9c-2.6,0-5-1.4-6.3-3.6
	l-32.9-57c-1.3-2.2-1.3-5,0-7.3l32.9-57c1.3-2.2,3.7-3.6,6.3-3.6h65.9c2.6,0,5,1.4,6.3,3.6l30.2,47c1.3,2.2,3.7,3.6,6.3,3.6h57.1
	c5.6,0,9.1-6,6.3-10.9l-63-103.7c-1.3-2.2-3.7-3.6-6.3-3.6l-69.7,0.3l52.7-90.6c1.3-2.2,1.3-5,0-7.3l-31-53.8
	c-1.7-2.9-5.9-2.9-7.5,0L179.6,408.1c-1.3,2.2-1.3,5,0,7.3l69.9,121.1c1.3,2.2,3.7,3.6,6.3,3.6h139.8c2.6,0,5-1.4,6.3-3.6L465,430.7
	C467.8,425.8,464.3,419.8,458.7,419.8z"/>
</svg>
