<?xml version="1.0" encoding="utf-8"?>
<!-- Generator: Adobe Illustrator 22.1.0, SVG Export Plug-In . SVG Version: 6.00 Build 0)  -->
<svg version="1.1" id="Layer_1" xmlns="http://www.w3.org/2000/svg" xmlns:xlink="http://www.w3.org/1999/xlink" x="0px" y="0px"
	 viewBox="0 0 1024 768" style="enable-background:new 0 0 1024 768;" xml:space="preserve">
<style type="text/css">
	.st0{fill:#005B82;}
	.st1{fill:#FFFFFF;}
</style>
<circle class="st0" cx="512" cy="351.6" r="285.6"/>
<path class="st1" d="M401.1,320.8c-0.9,1.7-3.4,0.8-3.1-1.1l39.7-180.5c0.5-2.4,3.6-3.3,5.2-1.3l31.6,37.5c1.4,1.7,1.7,4,0.7,6
	L401.1,320.8z"/>
<path class="st1" d="M373.1,360.4c-0.6,2.8-4.7,2.3-4.7-0.5v-168c0-2.2,2.6-3.3,4.2-1.9l28.2,25.3c1.3,1.2,1.9,3,1.6,4.8
	L373.1,360.4z"/>
<path class="st1" d="M648.4,419.8h-57.1c-2.6,0-5,1.4-6.3,3.6l-30.4,48.9c-1.3,2.2-3.7,3.6-6.3,3.6h-65.9c-2.6,0-5-1.4-6.3-3.6
	l-32.9-57c-1.3-2.2-1.3-5,0-7.3l32.9-57c1.3-2.2,3.7-3.6,6.3-3.6h65.9c2.6,0,5,1.4,6.3,3.6l30.2,47c1.3,2.2,3.7,3.6,6.3,3.6h57.1
	c5.6,0,9.1-6,6.3-10.9l-63-103.7c-1.3-2.2-3.7-3.6-6.3-3.6l-69.7,0.3l52.7-90.6c1.3-2.2,1.3-5,0-7.3l-31-53.8
	c-1.7-2.9-5.9-2.9-7.5,0L369.3,408.1c-1.3,2.2-1.3,5,0,7.3l69.9,121.1c1.3,2.2,3.7,3.6,6.3,3.6h139.8c2.6,0,5-1.4,6.3-3.6
	l63.1-105.8C657.5,425.8,654,419.8,648.4,419.8z"/>
</svg>
