<?xml version="1.0" encoding="utf-8"?>
<!-- Generator: Adobe Illustrator 23.0.2, SVG Export Plug-In . SVG Version: 6.00 Build 0)  -->
<svg version="1.1" id="Layer_1" xmlns="http://www.w3.org/2000/svg" xmlns:xlink="http://www.w3.org/1999/xlink" x="0px" y="0px"
	 viewBox="0 0 600 601.2" style="enable-background:new 0 0 600 601.2;" xml:space="preserve">
<style type="text/css">
	.st0{fill:#FEEC00;}
	.st1{fill:#FE8B00;}
	.st2{fill:#E30303;}
	.st3{fill:#008026;}
	.st4{fill:#004DFE;}
	.st5{fill:#750786;}
	.st6{fill:#FFFFFF;}
</style>
<g>
	<path class="st0" d="M582.4,198.4c11.4,31.7,17.6,65.8,17.6,101.4c0,0.5,0,0.9,0,1.4l-600,0c0-0.5,0-0.9,0-1.4
		c0-35.6,6.2-69.7,17.6-101.4L582.4,198.4z"/>
	<path class="st1" d="M522.1,98.1C548.3,127,569,161,582.4,198.4l-564.9,0c13.3-37.1,33.8-70.9,59.7-99.6L522.1,98.1z"/>
	<path class="st2" d="M77.6,99.1C132.5,38.2,212,0,300.4,0c88,0,167.2,37.9,222.1,98.3"/>
	<path class="st3" d="M582.6,402c11.1-31.1,17.4-100.4,17.4-100.8H0c0,0.5,6.3,69.7,17.4,100.8L582.6,402z"/>
	<path class="st4" d="M519.2,506c27.7-29.7,49.5-64.9,63.4-104l-565.3,0c13.9,39,35.7,74.3,63.4,104L519.2,506z"/>
	<path class="st5" d="M519.2,506c-54.8,58.6-132.7,95.2-219.2,95.2S135.5,564.6,80.8,506L519.2,506z"/>
</g>
<g>
	<path class="st6" d="M189.1,286.4c-0.9,1.7-3.4,0.8-3.1-1.1l39.7-180.5c0.5-2.4,3.6-3.3,5.2-1.3l31.6,37.5c1.4,1.7,1.7,4,0.7,6
		L189.1,286.4z"/>
	<path class="st6" d="M161.1,326c-0.6,2.8-4.7,2.3-4.7-0.5v-168c0-2.2,2.6-3.3,4.2-1.9l28.2,25.3c1.3,1.2,1.9,3,1.6,4.8L161.1,326z"
		/>
	<path class="st6" d="M436.4,385.4h-57.1c-2.6,0-5,1.4-6.3,3.6l-30.4,48.9c-1.3,2.2-3.7,3.6-6.3,3.6h-65.9c-2.6,0-5-1.4-6.3-3.6
		l-32.9-57c-1.3-2.2-1.3-5,0-7.3l32.9-57c1.3-2.2,3.7-3.6,6.3-3.6h65.9c2.6,0,5,1.4,6.3,3.6l30.2,47c1.3,2.2,3.7,3.6,6.3,3.6h57.1
		c5.6,0,9.1-6,6.3-10.9l-63-103.7c-1.3-2.2-3.7-3.6-6.3-3.6l-69.7,0.3l52.7-90.6c1.3-2.2,1.3-5,0-7.3l-31-53.8
		c-1.7-2.9-5.9-2.9-7.5,0L157.3,373.7c-1.3,2.2-1.3,5,0,7.3l69.9,121.1c1.3,2.2,3.7,3.6,6.3,3.6h139.8c2.6,0,5-1.4,6.3-3.6
		l63.1-105.8C445.5,391.4,442,385.4,436.4,385.4z"/>
</g>
</svg>
