<svg width="760" height="352" viewBox="0 0 760 352" xmlns="http://www.w3.org/2000/svg" style="background:#fff"><title>SQLProxyconnection Outlined@3x</title><g fill="none" fill-rule="evenodd"><path d="M701.747 268.838H431.584a2.463 2.463 0 0 1-2.456-2.456V58.585a2.463 2.463 0 0 1 2.456-2.456h270.163a2.463 2.463 0 0 1 2.456 2.456v207.797a2.463 2.463 0 0 1-2.456 2.456" stroke="#616161" stroke-linecap="round" stroke-dasharray="2,2"/><path d="M701.747 268.838H431.584a2.463 2.463 0 0 1-2.456-2.456V58.585a2.463 2.463 0 0 1 2.456-2.456h270.163a2.463 2.463 0 0 1 2.456 2.456v207.797a2.463 2.463 0 0 1-2.456 2.456zm-371 0H60.584a2.463 2.463 0 0 1-2.456-2.456V58.585a2.463 2.463 0 0 1 2.456-2.456h270.163a2.463 2.463 0 0 1 2.456 2.456v207.797a2.463 2.463 0 0 1-2.456 2.456" stroke="#616161" stroke-linecap="round" stroke-dasharray="2,2"/><path d="M330.747 268.838H60.584a2.463 2.463 0 0 1-2.456-2.456V58.585a2.463 2.463 0 0 1 2.456-2.456h270.163a2.463 2.463 0 0 1 2.456 2.456v207.797a2.463 2.463 0 0 1-2.456 2.456z" stroke="#616161" stroke-linecap="round" stroke-dasharray="2,2"/><path d="M188.51 204.602H73.389a2.262 2.262 0 0 1-2.256-2.256v-82.625a2.263 2.263 0 0 1 2.256-2.257H188.51a2.263 2.263 0 0 1 2.256 2.257v82.625a2.262 2.262 0 0 1-2.256 2.256" fill="#E2F3EB"/><path d="M188.51 204.602H73.389a2.262 2.262 0 0 1-2.256-2.256v-82.625a2.263 2.263 0 0 1 2.256-2.257H188.51a2.263 2.263 0 0 1 2.256 2.257v82.625a2.262 2.262 0 0 1-2.256 2.256z" stroke="#FFF" stroke-width="2"/><path d="M317.253 204.602H202.13a2.262 2.262 0 0 1-2.256-2.256v-82.625a2.263 2.263 0 0 1 2.256-2.257h115.123a2.263 2.263 0 0 1 2.256 2.257v82.625a2.262 2.262 0 0 1-2.256 2.256" fill="#B3E5FC"/><path d="M317.253 204.602H202.13a2.262 2.262 0 0 1-2.256-2.256v-82.625a2.263 2.263 0 0 1 2.256-2.257h115.123a2.263 2.263 0 0 1 2.256 2.257v82.625a2.262 2.262 0 0 1-2.256 2.256z" stroke="#FFF" stroke-width="2"/><path d="M96.567 189.86c-.039.336-.12.647-.246.936a2.26 2.26 0 0 1-.52.747 2.37 2.37 0 0 1-.81.493 3.198 3.198 0 0 1-1.119.178c-.42 0-.8-.078-1.143-.234a2.48 2.48 0 0 1-.876-.667 3.071 3.071 0 0 1-.561-1.037 4.342 4.342 0 0 1-.198-1.353v-.713c0-.498.066-.95.2-1.355a3.03 3.03 0 0 1 .571-1.04c.248-.288.548-.511.901-.669.353-.158.75-.237 1.19-.237.4 0 .754.059 1.064.176.309.117.572.28.788.49.217.21.388.461.515.753.127.291.209.613.244.964h-.942a3.192 3.192 0 0 0-.166-.669 1.505 1.505 0 0 0-.31-.508 1.303 1.303 0 0 0-.49-.322 1.966 1.966 0 0 0-.704-.112c-.316 0-.593.06-.832.183-.24.122-.44.293-.601.513-.161.22-.282.485-.364.796-.081.31-.122.653-.122 1.027v.723c0 .348.037.675.11.981.073.306.185.574.334.804.15.23.34.41.572.542.23.131.504.197.82.197.3 0 .552-.035.757-.107.205-.072.375-.175.51-.31s.24-.301.315-.498a3.31 3.31 0 0 0 .171-.672h.942zm2.12 2.256h-.904v-7.5h.904v7.5zm2.426 0h-.903v-5.283h.903v5.283zm-.976-6.684a.54.54 0 0 1 .134-.371c.09-.101.222-.152.398-.152.176 0 .31.05.4.152.091.1.137.224.137.37a.516.516 0 0 1-.137.367c-.09.098-.224.146-.4.146-.176 0-.308-.048-.398-.146a.521.521 0 0 1-.134-.366zm4.614 6.782c-.368 0-.7-.063-.999-.19a2.229 2.229 0 0 1-1.252-1.338 2.973 2.973 0 0 1-.17-1.026v-.205c0-.43.063-.814.192-1.152.129-.339.3-.623.515-.855.215-.23.46-.407.737-.53a2.14 2.14 0 0 1 .865-.183c.377 0 .703.066.976.198.274.132.5.314.677.545.177.23.308.504.393.82.084.316.127.66.127 1.03v.406h-3.58c.007.244.047.472.12.683.073.212.177.396.313.552.135.156.297.28.488.371.19.091.406.137.647.137.319 0 .589-.065.81-.196a2.02 2.02 0 0 0 .581-.517l.552.43c-.084.13-.187.256-.307.378s-.262.231-.423.327a2.222 2.222 0 0 1-.554.23 2.688 2.688 0 0 1-.708.085zm-.112-4.736c-.183 0-.35.033-.503.1-.153.067-.29.163-.41.29-.12.127-.22.285-.3.474a2.4 2.4 0 0 0-.164.65h2.646v-.069a2.5 2.5 0 0 0-.085-.522 1.419 1.419 0 0 0-.22-.464 1.132 1.132 0 0 0-.383-.332 1.208 1.208 0 0 0-.581-.127zm4.072-.645l.03.664a1.961 1.961 0 0 1 1.582-.762c.256 0 .49.035.698.105.208.07.385.183.532.337.146.155.26.354.34.596.079.243.119.536.119.881v3.462h-.904v-3.471c0-.205-.022-.38-.068-.525a.866.866 0 0 0-.203-.354.799.799 0 0 0-.332-.2 1.495 1.495 0 0 0-.456-.064c-.293 0-.55.078-.772.234a1.592 1.592 0 0 0-.517.616v3.764h-.904v-5.283h.855zm5.889-1.28v1.28h.986v.698h-.986v3.277a.92.92 0 0 0 .048.33.473.473 0 0 0 .13.192.413.413 0 0 0 .185.09c.07.015.143.023.218.023.075 0 .153-.008.236-.022.083-.015.148-.027.193-.037v.732c-.071.02-.164.041-.278.064a2.153 2.153 0 0 1-.415.034c-.166 0-.323-.024-.471-.07a.95.95 0 0 1-.388-.238 1.166 1.166 0 0 1-.264-.437 1.98 1.98 0 0 1-.098-.666v-3.272h-.962v-.698h.962v-1.28h.904zm8.584 4.708h-2.979l-.669 1.855h-.967l2.715-7.109h.82l2.72 7.11h-.962l-.678-1.856zm-2.696-.772h2.417l-1.21-3.325-1.207 3.325zm9.615.044c0 .388-.046.745-.137 1.072-.091.327-.224.61-.398.85a1.858 1.858 0 0 1-.642.559 1.84 1.84 0 0 1-.87.2c-.331 0-.622-.052-.87-.156a1.777 1.777 0 0 1-.643-.454v2.544h-.903v-7.315h.825l.044.586c.179-.221.395-.39.65-.508a2.09 2.09 0 0 1 .883-.176c.332 0 .626.066.881.196.256.13.472.313.647.55.176.235.309.518.398.849.09.33.135.697.135 1.1v.103zm-.904-.102a3.18 3.18 0 0 0-.083-.745 1.877 1.877 0 0 0-.259-.613 1.312 1.312 0 0 0-.444-.417 1.266 1.266 0 0 0-.64-.154c-.153 0-.292.018-.417.054a1.26 1.26 0 0 0-.608.383c-.078.09-.146.186-.205.29v2.525c.059.104.127.201.205.29a1.209 1.209 0 0 0 .61.379c.127.036.269.054.425.054a1.223 1.223 0 0 0 1.074-.577c.118-.175.204-.381.26-.617.055-.236.082-.486.082-.75v-.102zm6.514.102c0 .388-.046.745-.137 1.072-.091.327-.224.61-.398.85a1.858 1.858 0 0 1-.642.559 1.84 1.84 0 0 1-.869.2c-.332 0-.623-.052-.872-.156a1.777 1.777 0 0 1-.642-.454v2.544h-.903v-7.315h.825l.044.586c.18-.221.396-.39.65-.508a2.09 2.09 0 0 1 .883-.176c.332 0 .626.066.882.196.255.13.47.313.647.55.175.235.308.518.398.849.09.33.134.697.134 1.1v.103zm-.903-.102c0-.264-.028-.512-.083-.745a1.877 1.877 0 0 0-.26-.613 1.312 1.312 0 0 0-.444-.417 1.266 1.266 0 0 0-.64-.154c-.152 0-.291.018-.417.054a1.26 1.26 0 0 0-.608.383c-.078.09-.146.186-.205.29v2.525c.059.104.127.201.205.29a1.209 1.209 0 0 0 .61.379c.128.036.27.054.426.054.244 0 .454-.052.632-.157.177-.104.325-.244.442-.42.117-.175.203-.381.259-.617.055-.236.083-.486.083-.75v-.102zm3.032 2.685h-.904v-7.5h.904v7.5zm2.427 0h-.904v-5.283h.904v5.283zm-.977-6.684a.54.54 0 0 1 .134-.371c.09-.101.222-.152.398-.152.176 0 .31.05.4.152.092.1.137.224.137.37a.516.516 0 0 1-.136.367c-.092.098-.225.146-.4.146-.177 0-.31-.048-.399-.146a.521.521 0 0 1-.134-.366zm4.541 6.045a1.36 1.36 0 0 0 .847-.293c.112-.091.204-.2.274-.325a1.01 1.01 0 0 0 .124-.408h.855a1.578 1.578 0 0 1-.193.672c-.116.213-.268.4-.457.561a2.247 2.247 0 0 1-1.45.53c-.397 0-.743-.07-1.038-.212a2.105 2.105 0 0 1-.734-.574 2.43 2.43 0 0 1-.437-.84 3.488 3.488 0 0 1-.145-1.01v-.206c0-.355.049-.692.145-1.01a2.43 2.43 0 0 1 .437-.84c.195-.241.439-.433.732-.574a2.355 2.355 0 0 1 1.035-.213c.31 0 .59.05.842.147.253.098.47.232.655.403.184.17.328.373.432.608.104.234.163.486.176.757h-.855a1.376 1.376 0 0 0-.115-.457 1.197 1.197 0 0 0-.64-.623 1.274 1.274 0 0 0-.495-.092c-.28 0-.512.055-.696.166-.184.11-.332.256-.444.437a1.83 1.83 0 0 0-.237.61 3.441 3.441 0 0 0-.068.681v.205c0 .235.023.465.068.691.046.226.124.43.235.608.11.18.258.324.444.435.185.11.42.166.703.166zm6.377.64a.978.978 0 0 1-.078-.247c-.02-.1-.036-.203-.049-.31-.085.088-.18.171-.286.251a2.046 2.046 0 0 1-.754.352 2.036 2.036 0 0 1-.464.051c-.27 0-.515-.04-.735-.122a1.711 1.711 0 0 1-.561-.332 1.463 1.463 0 0 1-.486-1.108c0-.284.055-.534.166-.75.11-.216.27-.398.476-.544.207-.147.457-.258.75-.332a3.95 3.95 0 0 1 .98-.113h.9v-.415c0-.316-.095-.567-.284-.754-.189-.187-.467-.281-.835-.281-.17 0-.324.023-.464.068a1.2 1.2 0 0 0-.359.183.854.854 0 0 0-.231.267.65.65 0 0 0-.083.317h-.909c0-.189.05-.376.15-.562a1.65 1.65 0 0 1 .422-.5 2.21 2.21 0 0 1 .661-.361c.259-.093.548-.14.867-.14.286 0 .55.037.793.11.243.074.45.184.623.332.172.148.308.333.405.555.098.22.147.48.147.776v2.456c0 .179.015.367.046.564.031.197.077.367.14.51v.078h-.948zm-1.5-.69c.164 0 .317-.022.46-.067.143-.046.273-.105.39-.179.118-.073.22-.157.306-.251.086-.095.154-.192.202-.293v-1.084h-.752c-.517 0-.916.08-1.196.242a.79.79 0 0 0-.42.73.99.99 0 0 0 .064.356c.042.11.106.206.193.286a.96.96 0 0 0 .317.19c.125.047.27.07.437.07zm4.903-5.873v1.28h.987v.697h-.987v3.277a.92.92 0 0 0 .05.33.473.473 0 0 0 .129.192.413.413 0 0 0 .185.09c.07.015.142.023.217.023.075 0 .154-.008.237-.022.083-.015.147-.027.193-.037v.732c-.072.02-.164.041-.278.064a2.153 2.153 0 0 1-.415.034 1.59 1.59 0 0 1-.472-.07.95.95 0 0 1-.388-.238 1.166 1.166 0 0 1-.263-.437 1.98 1.98 0 0 1-.098-.666v-3.272h-.962v-.698h.962v-1.28h.903zm3.023 6.562h-.904v-5.283h.904v5.283zm-.977-6.684a.54.54 0 0 1 .134-.371c.09-.101.223-.152.398-.152.176 0 .31.05.4.152.092.1.138.224.138.37a.516.516 0 0 1-.137.367c-.091.098-.225.146-.4.146-.176 0-.309-.048-.399-.146a.521.521 0 0 1-.134-.366zm2.183 3.994c0-.384.056-.74.168-1.067.113-.327.272-.611.479-.852.206-.24.458-.43.754-.566a2.35 2.35 0 0 1 .996-.206c.375 0 .71.069 1.009.206.297.136.55.325.759.566.208.24.368.525.478.852.111.327.166.683.166 1.067v.107c0 .384-.055.74-.166 1.067-.11.327-.27.61-.478.85a2.18 2.18 0 0 1-.757.561c-.296.135-.63.203-1.001.203a2.38 2.38 0 0 1-1-.203 2.202 2.202 0 0 1-.758-.561 2.527 2.527 0 0 1-.48-.85 3.266 3.266 0 0 1-.17-1.067v-.107zm.908.107c0 .264.03.513.093.747a1.9 1.9 0 0 0 .28.618c.126.177.282.318.47.422.186.105.405.157.656.157a1.321 1.321 0 0 0 1.124-.579 1.97 1.97 0 0 0 .28-.618c.063-.234.095-.483.095-.747v-.107c0-.26-.032-.509-.095-.745a1.935 1.935 0 0 0-.283-.62 1.326 1.326 0 0 0-1.13-.583c-.248 0-.465.053-.65.158a1.436 1.436 0 0 0-.466.425 1.897 1.897 0 0 0-.281.62 2.926 2.926 0 0 0-.093.745v.107zm5.889-2.7l.029.664a1.961 1.961 0 0 1 1.582-.762c.257 0 .49.035.698.105.209.07.386.183.532.337.147.155.26.354.34.596.08.243.12.536.12.881v3.462h-.904v-3.471c0-.205-.023-.38-.068-.525a.866.866 0 0 0-.203-.354.799.799 0 0 0-.332-.2 1.495 1.495 0 0 0-.456-.064c-.293 0-.55.078-.772.234a1.592 1.592 0 0 0-.517.616v3.764h-.904v-5.283h.855zm7.739 3.882a.852.852 0 0 0-.044-.276.581.581 0 0 0-.173-.244 1.295 1.295 0 0 0-.369-.212 3.809 3.809 0 0 0-.63-.181 5.964 5.964 0 0 1-.79-.22 2.42 2.42 0 0 1-.599-.305 1.258 1.258 0 0 1-.378-.422 1.184 1.184 0 0 1-.132-.572c0-.208.046-.406.139-.593a1.53 1.53 0 0 1 .393-.493c.17-.142.374-.254.615-.337.241-.083.51-.125.806-.125.316 0 .598.044.847.13.249.086.46.204.635.354a1.515 1.515 0 0 1 .534 1.167h-.908a.79.79 0 0 0-.073-.325.885.885 0 0 0-.215-.293 1.108 1.108 0 0 0-.347-.21 1.29 1.29 0 0 0-.473-.08c-.189 0-.35.022-.481.066a.948.948 0 0 0-.325.175.675.675 0 0 0-.185.25.73.73 0 0 0-.01.549.5.5 0 0 0 .185.212c.092.064.216.122.374.176.158.054.362.108.613.163.322.075.602.16.84.254.237.095.434.205.59.33.157.125.273.27.35.432.076.163.114.352.114.567a1.4 1.4 0 0 1-.144.634 1.408 1.408 0 0 1-.412.493 2.025 2.025 0 0 1-.645.32c-.25.077-.529.115-.835.115-.351 0-.661-.049-.93-.146a2.083 2.083 0 0 1-.676-.389 1.645 1.645 0 0 1-.415-.551 1.519 1.519 0 0 1-.142-.638h.903c.01.186.055.341.135.467.08.125.18.227.3.305.12.078.252.133.395.166a1.977 1.977 0 0 0 .918-.01c.14-.039.258-.093.354-.161a.694.694 0 0 0 .218-.242.635.635 0 0 0 .073-.3zm62.677-1.382v2.783h-.937v-7.109h2.622c.404 0 .76.054 1.07.161.309.108.568.258.778.452.21.193.37.423.479.688.109.266.163.556.163.872 0 .342-.054.647-.163.915a1.77 1.77 0 0 1-.479.677c-.21.182-.47.321-.779.417a3.61 3.61 0 0 1-1.069.144h-1.685zm0-.766h1.685c.273 0 .509-.035.706-.103.196-.068.358-.164.483-.286a1.12 1.12 0 0 0 .276-.434 1.67 1.67 0 0 0 .088-.554c0-.183-.03-.36-.088-.53a1.21 1.21 0 0 0-.276-.452 1.35 1.35 0 0 0-.483-.312 1.912 1.912 0 0 0-.706-.118h-1.685v2.789zm7.784-.923a2.39 2.39 0 0 0-.445-.034c-.312 0-.567.068-.764.205-.197.136-.344.32-.442.551v3.75h-.903v-5.283h.879l.014.61a1.59 1.59 0 0 1 .513-.517c.205-.127.454-.19.747-.19a1.335 1.335 0 0 1 .4.068v.84zm.378 1.782c0-.384.056-.74.168-1.067.113-.327.272-.611.479-.852.206-.24.458-.43.754-.566a2.35 2.35 0 0 1 .996-.206c.375 0 .71.069 1.009.206.297.136.55.325.759.566.208.24.368.525.478.852.111.327.166.683.166 1.067v.107c0 .384-.055.74-.166 1.067-.11.327-.27.61-.478.85a2.19 2.19 0 0 1-.757.561c-.296.135-.63.203-1.001.203-.371 0-.705-.068-1.001-.203a2.202 2.202 0 0 1-.757-.561 2.527 2.527 0 0 1-.48-.85 3.266 3.266 0 0 1-.17-1.067v-.107zm.908.107c0 .264.03.513.093.747a1.9 1.9 0 0 0 .28.618c.126.177.282.318.47.422.186.105.405.157.656.157a1.324 1.324 0 0 0 1.123-.579 1.97 1.97 0 0 0 .28-.618 2.82 2.82 0 0 0 .096-.747v-.107c0-.26-.032-.509-.095-.745a1.935 1.935 0 0 0-.283-.62 1.326 1.326 0 0 0-1.13-.583c-.248 0-.465.053-.65.158a1.436 1.436 0 0 0-.466.425 1.897 1.897 0 0 0-.281.62 2.926 2.926 0 0 0-.093.745v.107zm6.604-.771l1.172-1.929h1.055l-1.729 2.612 1.782 2.671h-1.045l-1.22-1.977-1.221 1.977h-1.05l1.782-2.67-1.728-2.613h1.045l1.157 1.929zm4.912 2.031l1.23-3.96h.967l-2.124 6.099a4.14 4.14 0 0 1-.19.425c-.078.153-.18.295-.305.427a1.648 1.648 0 0 1-.452.332 1.35 1.35 0 0 1-.747.124 4.543 4.543 0 0 1-.38-.068v-.732c.012.003.03.005.053.007a14.86 14.86 0 0 0 .19.012c.153 0 .288-.015.406-.044a.887.887 0 0 0 .312-.144.9.9 0 0 0 .237-.266 2.12 2.12 0 0 0 .183-.41l.2-.537-1.885-5.225h.987l1.318 3.96zm10.85-.933a3.3 3.3 0 0 1-.247.936 2.26 2.26 0 0 1-.52.747c-.221.21-.491.374-.81.493a3.198 3.198 0 0 1-1.119.178c-.42 0-.8-.078-1.142-.234a2.48 2.48 0 0 1-.877-.667 3.071 3.071 0 0 1-.561-1.037 4.342 4.342 0 0 1-.198-1.353v-.713c0-.498.067-.95.2-1.355a3.03 3.03 0 0 1 .572-1.04c.247-.288.547-.511.9-.669.354-.158.75-.237 1.19-.237.4 0 .755.059 1.064.176.31.117.572.28.789.49.216.21.388.461.515.753.127.291.208.613.244.964h-.943a3.192 3.192 0 0 0-.166-.669 1.505 1.505 0 0 0-.31-.508 1.303 1.303 0 0 0-.49-.322 1.966 1.966 0 0 0-.704-.112c-.315 0-.593.06-.832.183-.24.122-.44.293-.6.513-.162.22-.283.485-.364.796-.082.31-.122.653-.122 1.027v.723c0 .348.036.675.11.981.073.306.184.574.334.804.15.23.34.41.571.542.231.131.505.197.82.197.3 0 .552-.035.757-.107.205-.072.375-.175.51-.31.136-.135.24-.301.316-.498.074-.197.131-.42.17-.672h.943zm2.119 2.256h-.903v-7.5h.903v7.5zm2.427 0h-.904v-5.283h.904v5.283zm-.977-6.684a.54.54 0 0 1 .134-.371c.09-.101.223-.152.398-.152.176 0 .31.05.4.152.092.1.137.224.137.37a.516.516 0 0 1-.136.367c-.091.098-.225.146-.4.146-.176 0-.31-.048-.399-.146a.521.521 0 0 1-.134-.366zm4.614 6.782c-.367 0-.7-.063-.998-.19a2.229 2.229 0 0 1-1.253-1.338 2.973 2.973 0 0 1-.17-1.026v-.205c0-.43.064-.814.192-1.152.129-.339.3-.623.516-.855.214-.23.46-.407.737-.53.277-.121.565-.183.864-.183.378 0 .703.066.977.198.273.132.498.314.676.545.177.23.308.504.393.82.085.316.127.66.127 1.03v.406h-3.58c.007.244.047.472.12.683.074.212.178.396.313.552.135.156.298.28.488.371.19.091.406.137.647.137.32 0 .59-.065.81-.196.222-.13.416-.302.582-.517l.552.43c-.085.13-.188.256-.308.378s-.261.231-.422.327a2.222 2.222 0 0 1-.555.23 2.688 2.688 0 0 1-.708.085zm-.112-4.736c-.182 0-.35.033-.503.1-.153.067-.29.163-.41.29-.12.127-.22.285-.3.474a2.4 2.4 0 0 0-.164.65h2.647v-.069a2.5 2.5 0 0 0-.086-.522 1.419 1.419 0 0 0-.22-.464 1.132 1.132 0 0 0-.383-.332 1.208 1.208 0 0 0-.58-.127zm4.072-.645l.03.664a1.961 1.961 0 0 1 1.582-.762c.257 0 .49.035.698.105.208.07.386.183.532.337.147.155.26.354.34.596.08.243.12.536.12.881v3.462h-.904v-3.471c0-.205-.023-.38-.069-.525a.866.866 0 0 0-.202-.354.799.799 0 0 0-.332-.2 1.495 1.495 0 0 0-.457-.064c-.293 0-.55.078-.771.234a1.592 1.592 0 0 0-.518.616v3.764h-.903v-5.283h.854zm5.889-1.28v1.28h.986v.698h-.986v3.277a.92.92 0 0 0 .049.33.473.473 0 0 0 .13.192.413.413 0 0 0 .185.09c.07.015.142.023.217.023.075 0 .154-.008.237-.022.083-.015.147-.027.193-.037v.732c-.072.02-.165.041-.279.064a2.153 2.153 0 0 1-.415.034c-.166 0-.323-.024-.47-.07a.95.95 0 0 1-.389-.238 1.166 1.166 0 0 1-.264-.437 1.98 1.98 0 0 1-.097-.666v-3.272h-.962v-.698h.962v-1.28h.903z" fill="#757575"/><path d="M560.534 204.602H445.411a2.262 2.262 0 0 1-2.256-2.256v-82.625a2.263 2.263 0 0 1 2.256-2.257h115.123a2.263 2.263 0 0 1 2.256 2.257v82.625a2.262 2.262 0 0 1-2.256 2.256" fill="#B3E5FC"/><path d="M560.534 204.602H445.411a2.262 2.262 0 0 1-2.256-2.256v-82.625a2.263 2.263 0 0 1 2.256-2.257h115.123a2.263 2.263 0 0 1 2.256 2.257v82.625a2.262 2.262 0 0 1-2.256 2.256z" stroke="#FFF" stroke-width="2"/><path d="M689.277 204.602H574.154a2.262 2.262 0 0 1-2.256-2.256v-82.625a2.263 2.263 0 0 1 2.256-2.257h115.123a2.263 2.263 0 0 1 2.256 2.257v82.625a2.262 2.262 0 0 1-2.256 2.256" fill="#B3E5FC"/><path d="M689.277 204.602H574.154a2.262 2.262 0 0 1-2.256-2.256v-82.625a2.263 2.263 0 0 1 2.256-2.257h115.123a2.263 2.263 0 0 1 2.256 2.257v82.625a2.262 2.262 0 0 1-2.256 2.256z" stroke="#FFF" stroke-width="2"/><path d="M476.974 190v2.783h-.938v-7.109h2.622c.404 0 .76.054 1.07.161.309.108.568.258.778.452.21.193.37.423.479.688.109.266.163.556.163.872 0 .342-.054.647-.163.915a1.77 1.77 0 0 1-.479.677c-.21.182-.47.321-.778.417a3.61 3.61 0 0 1-1.07.144h-1.684zm0-.766h1.684c.274 0 .509-.035.706-.103.197-.068.358-.164.483-.286a1.12 1.12 0 0 0 .276-.434 1.67 1.67 0 0 0 .088-.554c0-.183-.03-.36-.088-.53a1.21 1.21 0 0 0-.276-.452 1.35 1.35 0 0 0-.483-.312 1.912 1.912 0 0 0-.706-.118h-1.684v2.789zm7.783-.923a2.39 2.39 0 0 0-.445-.034c-.312 0-.567.068-.764.205-.197.136-.344.32-.442.551v3.75h-.903V187.5h.879l.015.61a1.59 1.59 0 0 1 .512-.517c.205-.127.454-.19.747-.19a1.335 1.335 0 0 1 .4.068v.84zm.395 1.782c0-.384.056-.74.168-1.067.113-.327.272-.611.479-.852.207-.24.458-.43.754-.566a2.35 2.35 0 0 1 .996-.206c.375 0 .71.069 1.009.206a2.2 2.2 0 0 1 .759.566c.208.24.368.525.479.852.11.327.166.683.166 1.067v.107c0 .384-.056.74-.166 1.067a2.5 2.5 0 0 1-.479.85 2.18 2.18 0 0 1-.757.561c-.296.135-.63.203-1 .203-.372 0-.706-.068-1.002-.203a2.202 2.202 0 0 1-.757-.561 2.527 2.527 0 0 1-.48-.85 3.266 3.266 0 0 1-.169-1.067v-.107zm.908.107c0 .264.031.513.093.747a1.9 1.9 0 0 0 .28.618 1.318 1.318 0 0 0 1.126.579 1.319 1.319 0 0 0 1.124-.579 1.97 1.97 0 0 0 .28-.618c.063-.234.095-.483.095-.747v-.107c0-.26-.032-.509-.095-.745a1.935 1.935 0 0 0-.283-.62 1.326 1.326 0 0 0-1.13-.583c-.248 0-.464.053-.65.158a1.436 1.436 0 0 0-.466.425 1.897 1.897 0 0 0-.281.62 2.926 2.926 0 0 0-.093.745v.107zm6.605-.771l1.172-1.929h1.055l-1.729 2.612 1.783 2.671H493.9l-1.221-1.977-1.22 1.977h-1.05l1.782-2.67-1.729-2.613h1.045l1.157 1.929zm4.912 2.031l1.23-3.96h.968l-2.124 6.099a4.14 4.14 0 0 1-.19.425c-.079.153-.18.295-.306.427a1.648 1.648 0 0 1-.452.332 1.35 1.35 0 0 1-.747.124 4.543 4.543 0 0 1-.38-.068v-.732c.012.003.03.005.053.007a14.86 14.86 0 0 0 .19.012c.154 0 .289-.015.406-.044a.887.887 0 0 0 .312-.144.9.9 0 0 0 .237-.266 2.12 2.12 0 0 0 .183-.41l.2-.537-1.884-5.225h.986l1.318 3.96zm9.41-.474a1.19 1.19 0 0 0-.076-.439.876.876 0 0 0-.269-.35 2.14 2.14 0 0 0-.52-.297 7.6 7.6 0 0 0-.83-.286c-.351-.1-.67-.215-.954-.344a3.136 3.136 0 0 1-.728-.444 1.792 1.792 0 0 1-.461-.574 1.627 1.627 0 0 1-.161-.737c0-.277.057-.533.173-.77a1.84 1.84 0 0 1 .49-.614c.212-.175.466-.31.762-.408a3.15 3.15 0 0 1 .992-.147c.4 0 .756.06 1.069.181.312.12.575.28.788.478a2.04 2.04 0 0 1 .652 1.494h-.942a1.56 1.56 0 0 0-.095-.551 1.16 1.16 0 0 0-.29-.44 1.34 1.34 0 0 0-.49-.288 2.103 2.103 0 0 0-.692-.102 2.2 2.2 0 0 0-.655.088 1.313 1.313 0 0 0-.459.241.96.96 0 0 0-.268.364c-.059.14-.088.293-.088.46 0 .149.032.286.095.41.063.123.162.237.295.341.134.104.306.2.516.288.21.088.461.173.754.254.404.114.752.24 1.045.379.293.138.535.295.725.47.19.176.332.373.425.592.093.218.139.465.139.742 0 .29-.059.551-.176.786a1.72 1.72 0 0 1-.5.6 2.367 2.367 0 0 1-.782.384 3.58 3.58 0 0 1-1.018.134 3.56 3.56 0 0 1-.654-.061 3.239 3.239 0 0 1-.627-.183 2.779 2.779 0 0 1-.557-.303 2.15 2.15 0 0 1-.447-.42 1.88 1.88 0 0 1-.405-1.191h.942c0 .244.048.453.144.627.096.174.225.318.386.432.161.114.347.198.557.252.21.054.43.08.661.08.495 0 .874-.1 1.138-.302a.983.983 0 0 0 .396-.826zm4.194 1.895c-.368 0-.7-.063-.999-.19a2.229 2.229 0 0 1-1.252-1.338 2.973 2.973 0 0 1-.171-1.026v-.205c0-.43.064-.814.193-1.152.128-.339.3-.623.515-.855.215-.23.46-.407.737-.53a2.14 2.14 0 0 1 .865-.183c.377 0 .703.066.976.198.274.132.499.314.676.545.178.23.309.504.393.82.085.316.127.66.127 1.03v.406h-3.579c.007.244.047.472.12.683.073.212.177.396.312.552.136.156.298.28.489.371.19.091.406.137.647.137.319 0 .589-.065.81-.196a2.02 2.02 0 0 0 .581-.517l.552.43c-.085.13-.187.256-.308.378a2.06 2.06 0 0 1-.422.327 2.222 2.222 0 0 1-.554.23 2.688 2.688 0 0 1-.708.085zm-.112-4.736c-.183 0-.35.033-.503.1-.153.067-.29.163-.41.29-.12.127-.221.285-.3.474a2.4 2.4 0 0 0-.164.65h2.646v-.069a2.5 2.5 0 0 0-.085-.522 1.419 1.419 0 0 0-.22-.464 1.132 1.132 0 0 0-.383-.332 1.208 1.208 0 0 0-.581-.127zm5.771.166a2.39 2.39 0 0 0-.444-.034c-.313 0-.567.068-.764.205-.197.136-.345.32-.442.551v3.75h-.904V187.5h.88l.014.61a1.59 1.59 0 0 1 .513-.517c.205-.127.454-.19.747-.19a1.335 1.335 0 0 1 .4.068v.84zm2.711 3.247l1.309-4.058h.923l-1.895 5.283h-.688l-1.914-5.283h.922l1.343 4.058zm5.13 1.323c-.368 0-.701-.063-.999-.19a2.229 2.229 0 0 1-1.252-1.338 2.973 2.973 0 0 1-.171-1.026v-.205c0-.43.064-.814.193-1.152.128-.339.3-.623.515-.855.215-.23.46-.407.737-.53.277-.121.565-.183.864-.183.378 0 .704.066.977.198s.499.314.676.545c.178.23.309.504.393.82.085.316.127.66.127 1.03v.406h-3.579c.007.244.047.472.12.683.073.212.177.396.312.552.135.156.298.28.489.371.19.091.406.137.647.137.319 0 .589-.065.81-.196.221-.13.415-.302.581-.517l.552.43c-.085.13-.187.256-.308.378-.12.122-.261.231-.422.327a2.222 2.222 0 0 1-.554.23 2.688 2.688 0 0 1-.708.085zm-.113-4.736c-.182 0-.35.033-.503.1-.153.067-.29.163-.41.29-.12.127-.22.285-.3.474a2.4 2.4 0 0 0-.164.65h2.647v-.069a2.5 2.5 0 0 0-.086-.522 1.419 1.419 0 0 0-.22-.464 1.132 1.132 0 0 0-.383-.332 1.208 1.208 0 0 0-.58-.127zm5.772.166a2.39 2.39 0 0 0-.444-.034c-.313 0-.568.068-.765.205-.197.136-.344.32-.442.551v3.75h-.903V187.5h.88l.014.61a1.59 1.59 0 0 1 .512-.517c.205-.127.455-.19.747-.19a1.335 1.335 0 0 1 .4.068v.84zm82.382 3.802h-.938v-7.109h.938v7.11zm2.427-5.283l.029.664a1.961 1.961 0 0 1 1.582-.762c.257 0 .49.035.698.105.209.07.386.183.533.337.146.155.26.354.339.596.08.243.12.536.12.881v3.462h-.904v-3.471c0-.205-.023-.38-.068-.525a.866.866 0 0 0-.203-.354.799.799 0 0 0-.332-.2 1.495 1.495 0 0 0-.456-.064c-.293 0-.55.078-.772.234a1.592 1.592 0 0 0-.517.616v3.764h-.904v-5.283h.855zm7.739 3.882a.852.852 0 0 0-.044-.276.581.581 0 0 0-.173-.244 1.295 1.295 0 0 0-.369-.212 3.809 3.809 0 0 0-.63-.181 5.964 5.964 0 0 1-.79-.22 2.42 2.42 0 0 1-.599-.305 1.258 1.258 0 0 1-.378-.422 1.184 1.184 0 0 1-.132-.572c0-.208.046-.406.139-.593a1.53 1.53 0 0 1 .393-.493c.17-.142.374-.254.615-.337.241-.083.51-.125.806-.125.316 0 .598.044.847.13.25.086.46.204.635.354a1.515 1.515 0 0 1 .534 1.167h-.908a.79.79 0 0 0-.073-.325.885.885 0 0 0-.215-.293 1.108 1.108 0 0 0-.347-.21 1.29 1.29 0 0 0-.473-.08c-.189 0-.35.022-.481.066a.948.948 0 0 0-.325.175.675.675 0 0 0-.185.25.73.73 0 0 0-.01.549.5.5 0 0 0 .185.212c.092.064.216.122.374.176.158.054.362.108.613.163.322.075.602.16.84.254.237.095.434.205.59.33.157.125.273.27.35.432.076.163.114.352.114.567a1.4 1.4 0 0 1-.144.634 1.408 1.408 0 0 1-.412.493 2.025 2.025 0 0 1-.645.32c-.25.077-.529.115-.835.115-.351 0-.661-.049-.93-.146a2.083 2.083 0 0 1-.676-.389 1.645 1.645 0 0 1-.415-.551 1.519 1.519 0 0 1-.142-.638h.903c.01.186.055.341.135.467.08.125.18.227.3.305.12.078.252.133.395.166a1.977 1.977 0 0 0 .918-.01c.14-.039.258-.093.354-.161a.694.694 0 0 0 .218-.242.635.635 0 0 0 .073-.3zm3.306-5.161v1.28h.986v.697h-.986v3.277a.92.92 0 0 0 .048.33.473.473 0 0 0 .13.192.413.413 0 0 0 .185.09c.07.015.143.023.218.023.075 0 .153-.008.237-.022.083-.015.147-.027.192-.037v.732c-.071.02-.164.041-.278.064a2.153 2.153 0 0 1-.415.034c-.166 0-.323-.024-.471-.07a.95.95 0 0 1-.388-.238 1.166 1.166 0 0 1-.264-.437 1.98 1.98 0 0 1-.098-.666v-3.272h-.962v-.698h.962v-1.28h.904zm5.302 6.562a.978.978 0 0 1-.078-.246c-.02-.1-.036-.203-.049-.31a2.42 2.42 0 0 1-.285.251 2.046 2.046 0 0 1-.755.352 2.036 2.036 0 0 1-.463.051c-.27 0-.516-.04-.735-.122a1.711 1.711 0 0 1-.562-.332 1.463 1.463 0 0 1-.486-1.108c0-.284.056-.534.166-.75.111-.216.27-.398.476-.544.207-.147.457-.258.75-.332.293-.075.62-.113.981-.113h.899v-.415c0-.316-.095-.567-.283-.754-.19-.187-.468-.281-.835-.281-.17 0-.324.023-.464.068-.14.046-.26.107-.36.183a.854.854 0 0 0-.231.267.65.65 0 0 0-.083.317h-.908c0-.189.05-.376.149-.562a1.65 1.65 0 0 1 .422-.5c.182-.148.403-.269.662-.361.258-.093.547-.14.866-.14.287 0 .551.037.794.11.242.074.45.184.622.332.173.148.308.333.406.555.097.22.146.48.146.776v2.456c0 .179.016.367.046.564.031.197.078.367.14.51v.078h-.948zm-1.499-.688c.163 0 .316-.023.46-.068.143-.046.273-.105.39-.179.117-.073.219-.157.305-.251.086-.095.154-.192.203-.293v-1.084h-.752c-.518 0-.917.08-1.196.242a.79.79 0 0 0-.42.73.99.99 0 0 0 .063.356c.042.11.107.206.193.286a.96.96 0 0 0 .317.19c.126.047.271.07.437.07zm4.532-4.595l.029.664a1.961 1.961 0 0 1 1.582-.762c.257 0 .49.035.698.105.209.07.386.183.532.337.147.155.26.354.34.596.08.243.12.536.12.881v3.462h-.904v-3.471c0-.205-.023-.38-.068-.525a.866.866 0 0 0-.203-.354.799.799 0 0 0-.332-.2 1.495 1.495 0 0 0-.457-.064c-.292 0-.55.078-.771.234a1.592 1.592 0 0 0-.518.616v3.764h-.903v-5.283h.855zm6.782 4.644a1.36 1.36 0 0 0 .847-.293c.112-.091.203-.2.273-.325a1.01 1.01 0 0 0 .125-.408h.854a1.578 1.578 0 0 1-.192.672c-.116.213-.268.4-.457.561a2.247 2.247 0 0 1-1.45.53c-.397 0-.743-.07-1.038-.212a2.105 2.105 0 0 1-.735-.574 2.43 2.43 0 0 1-.437-.84 3.488 3.488 0 0 1-.144-1.01v-.206c0-.355.048-.692.144-1.01a2.43 2.43 0 0 1 .437-.84c.196-.241.44-.433.733-.574a2.355 2.355 0 0 1 1.035-.213c.31 0 .59.05.842.147.253.098.47.232.655.403.183.17.327.373.432.608.104.234.162.486.175.757h-.854a1.375 1.375 0 0 0-.115-.457 1.197 1.197 0 0 0-.64-.623 1.274 1.274 0 0 0-.495-.092c-.28 0-.512.055-.696.166-.184.11-.332.256-.444.437a1.83 1.83 0 0 0-.237.61 3.441 3.441 0 0 0-.068.681v.205c0 .235.022.465.068.691.046.226.124.43.234.608.111.18.26.324.445.435.185.11.42.166.703.166zm5.307.737c-.367 0-.7-.063-.998-.19a2.229 2.229 0 0 1-1.253-1.338 2.973 2.973 0 0 1-.17-1.026v-.205c0-.43.064-.814.192-1.152.129-.339.3-.623.516-.855.214-.23.46-.407.737-.53.277-.121.565-.183.864-.183.378 0 .703.066.977.198.273.132.499.314.676.545.177.23.308.504.393.82.085.316.127.66.127 1.03v.406h-3.58c.007.244.047.472.12.683.074.212.178.396.313.552.135.156.298.28.488.371.19.091.406.137.647.137.32 0 .59-.065.81-.196.222-.13.416-.302.582-.517l.552.43c-.085.13-.188.256-.308.378s-.261.231-.422.327a2.222 2.222 0 0 1-.555.23 2.688 2.688 0 0 1-.708.085zm-.112-4.736c-.182 0-.35.033-.503.1-.153.067-.29.163-.41.29-.12.127-.22.285-.3.474a2.4 2.4 0 0 0-.164.65h2.647v-.069a2.5 2.5 0 0 0-.086-.522 1.419 1.419 0 0 0-.22-.464 1.132 1.132 0 0 0-.383-.332 1.208 1.208 0 0 0-.58-.127z" fill="#757575"/><path d="M432.157 100.934a2.833 2.833 0 1 1-5.667 0 2.833 2.833 0 0 1 5.667 0m-111.005 57.633a2.833 2.833 0 1 1-5.666 0 2.833 2.833 0 0 1 5.666 0m125.759 0a2.833 2.833 0 1 1-5.666 0 2.833 2.833 0 0 1 5.666 0" fill="#616161"/><path fill="#616161" fill-rule="nonzero" d="M444 158.074H319v.819h125z"/><path d="M165.377 84.223c-.04.418-.137.803-.293 1.157a2.76 2.76 0 0 1-.65.917 2.935 2.935 0 0 1-1.017.603c-.4.145-.862.217-1.386.217-.523 0-.997-.095-1.42-.284a3.04 3.04 0 0 1-1.085-.809 3.654 3.654 0 0 1-.688-1.268 5.421 5.421 0 0 1-.24-1.67v-.691c0-.614.082-1.17.246-1.667.164-.499.398-.923.703-1.275a3.112 3.112 0 0 1 1.104-.814 3.54 3.54 0 0 1 1.45-.287c.508 0 .958.073 1.348.22.39.146.722.349.993.609.272.26.485.569.64.928.153.36.252.752.295 1.178H163.9a3.319 3.319 0 0 0-.16-.726 1.547 1.547 0 0 0-.326-.548 1.345 1.345 0 0 0-.533-.343 2.29 2.29 0 0 0-.78-.117c-.335 0-.63.063-.881.19-.252.127-.462.31-.63.55a2.592 2.592 0 0 0-.378.889 5.19 5.19 0 0 0-.126 1.2v.704c0 .426.037.812.111 1.16.074.348.19.646.346.894.156.248.357.44.603.577.247.137.541.205.885.205.32 0 .591-.037.812-.111.22-.075.403-.184.548-.329a1.49 1.49 0 0 0 .337-.533 3.2 3.2 0 0 0 .172-.726h1.477zM167.791 87h-1.424v-9h1.424v9zm2.778 0h-1.424v-6.34h1.424V87zm-1.512-7.986c0-.22.07-.4.208-.545.139-.145.337-.217.595-.217.258 0 .457.072.598.217a.75.75 0 0 1 .21.545c0 .215-.07.393-.21.536-.141.142-.34.214-.598.214-.258 0-.456-.072-.595-.214a.738.738 0 0 1-.208-.536zm5.567 8.103c-.469 0-.89-.078-1.266-.234a2.786 2.786 0 0 1-.955-.645 2.82 2.82 0 0 1-.603-.972 3.444 3.444 0 0 1-.211-1.213v-.235c0-.5.074-.952.222-1.356.149-.404.352-.748.61-1.031.258-.284.561-.502.911-.657a2.77 2.77 0 0 1 1.128-.231c.46 0 .861.077 1.201.231.34.155.621.37.844.648.222.277.389.607.498.99.11.383.164.803.164 1.26v.61h-4.143c.02.245.072.472.156.679.084.207.198.386.342.536a1.576 1.576 0 0 0 1.184.483c.352 0 .657-.07.917-.21a2.16 2.16 0 0 0 .677-.58l.767.732a2.602 2.602 0 0 1-.905.823 3.034 3.034 0 0 1-.683.27 3.303 3.303 0 0 1-.855.102zm-.17-5.431c-.39 0-.706.136-.946.41-.24.273-.394.654-.46 1.142h2.713v-.105a2.598 2.598 0 0 0-.091-.542 1.382 1.382 0 0 0-.226-.463 1.09 1.09 0 0 0-.395-.322c-.162-.08-.36-.12-.595-.12zm4.852-1.026l.04.733c.224-.27.491-.479.804-.627a2.4 2.4 0 0 1 1.043-.223c.304 0 .58.042.829.126.248.084.46.22.635.407.176.188.312.432.408.733.095.3.143.666.143 1.095V87h-1.424v-4.107c0-.22-.024-.404-.073-.554a.9.9 0 0 0-.214-.366.807.807 0 0 0-.348-.202 1.686 1.686 0 0 0-.478-.062c-.293 0-.548.07-.764.21-.217.142-.39.331-.519.57V87h-1.424v-6.34h1.342zm6.85-1.54v1.54h1.119v1.055h-1.12v3.539c0 .144.016.262.048.351a.46.46 0 0 0 .134.208.48.48 0 0 0 .208.1c.08.018.17.026.267.026.098 0 .192-.006.284-.02a2.97 2.97 0 0 0 .214-.038v1.101a5.355 5.355 0 0 1-.395.091c-.15.03-.331.044-.542.044-.235 0-.453-.031-.654-.094a1.297 1.297 0 0 1-.521-.304 1.417 1.417 0 0 1-.343-.551 2.46 2.46 0 0 1-.123-.832v-3.621h-1.043V80.66h1.043v-1.54h1.424zm6.68-.651l2.461 6.539 2.455-6.54h1.916V87h-1.476v-2.813l.146-3.761-2.52 6.574h-1.06l-2.514-6.568.147 3.755V87h-1.477v-8.531h1.922zM204.784 87a1.182 1.182 0 0 1-.097-.264 4.208 4.208 0 0 1-.067-.328 2.55 2.55 0 0 1-.314.276 2.152 2.152 0 0 1-.832.378 2.32 2.32 0 0 1-.518.055 2.57 2.57 0 0 1-.873-.143 2.05 2.05 0 0 1-.683-.399c-.19-.17-.338-.37-.445-.6a1.753 1.753 0 0 1-.162-.75c0-.34.065-.641.194-.903.129-.261.316-.48.562-.656.246-.176.548-.31.906-.401a4.926 4.926 0 0 1 1.221-.138h.897v-.416c0-.328-.092-.59-.276-.788-.183-.197-.462-.296-.837-.296-.168 0-.32.022-.458.067a1.11 1.11 0 0 0-.348.182.806.806 0 0 0-.223.272.75.75 0 0 0-.079.34h-1.424c0-.25.062-.49.185-.723a1.98 1.98 0 0 1 .524-.621 2.68 2.68 0 0 1 .823-.437 3.35 3.35 0 0 1 1.082-.164c.355 0 .683.046.984.138.3.091.56.228.78.41.218.181.388.408.509.68.121.271.182.588.182.952v2.812c0 .57.08 1.026.24 1.365v.1h-1.453zm-1.565-1.025a1.587 1.587 0 0 0 .847-.235 1.432 1.432 0 0 0 .507-.521v-1.196h-.768c-.527 0-.924.092-1.19.276a.892.892 0 0 0-.398.78c0 .128.022.247.065.357a.767.767 0 0 0 .193.284c.086.08.19.142.314.187.123.045.266.068.43.068zm6.587.005c.171 0 .333-.026.483-.079.15-.052.281-.127.392-.222.112-.096.202-.21.27-.343a1.05 1.05 0 0 0 .114-.434h1.342a2.03 2.03 0 0 1-.226.862c-.138.27-.324.505-.556.706-.233.2-.503.36-.812.474a2.808 2.808 0 0 1-.99.173c-.488 0-.913-.084-1.274-.252a2.554 2.554 0 0 1-.903-.685 2.866 2.866 0 0 1-.536-1.014 4.22 4.22 0 0 1-.176-1.23v-.206c0-.433.059-.843.176-1.23.117-.387.296-.726.536-1.017.24-.29.54-.52.9-.688.36-.168.783-.252 1.271-.252.383 0 .732.059 1.046.176a2.253 2.253 0 0 1 1.336 1.248c.127.293.196.615.208.967h-1.342a1.477 1.477 0 0 0-.102-.48 1.179 1.179 0 0 0-.642-.668 1.278 1.278 0 0 0-.515-.1c-.29 0-.528.06-.715.178a1.32 1.32 0 0 0-.446.466 1.96 1.96 0 0 0-.225.656 4.519 4.519 0 0 0-.062.744v.206c0 .257.02.508.062.752.04.245.116.462.225.654.11.191.257.345.443.463.185.117.425.175.718.175zm4.793-4.628a2.258 2.258 0 0 1 1.764-.809c.308 0 .59.043.843.129.254.086.47.224.65.413.18.19.319.436.417.738.097.303.146.67.146 1.099V87h-1.424v-4.09c0-.437-.094-.747-.284-.929-.19-.181-.468-.272-.835-.272-.297 0-.552.068-.765.205a1.516 1.516 0 0 0-.512.557V87h-1.424v-9h1.424v3.352zM221.085 87h-1.423v-6.34h1.423V87zm-1.511-7.986c0-.22.07-.4.208-.545.138-.145.337-.217.594-.217.258 0 .457.072.598.217a.75.75 0 0 1 .211.545c0 .215-.07.393-.21.536-.142.142-.34.214-.599.214-.257 0-.456-.072-.594-.214a.738.738 0 0 1-.208-.536zm4.096 1.646l.04.733a2.32 2.32 0 0 1 .803-.627 2.4 2.4 0 0 1 1.043-.223c.305 0 .581.042.83.126.248.084.46.22.635.407.176.188.312.432.408.733.095.3.143.666.143 1.095V87h-1.424v-4.107c0-.22-.024-.404-.073-.554a.9.9 0 0 0-.214-.366.807.807 0 0 0-.348-.202 1.686 1.686 0 0 0-.478-.062c-.293 0-.548.07-.765.21-.216.142-.39.331-.518.57V87h-1.424v-6.34h1.342zm7.857 6.457c-.468 0-.89-.078-1.265-.234a2.786 2.786 0 0 1-.955-.645 2.82 2.82 0 0 1-.604-.972c-.14-.375-.21-.78-.21-1.213v-.235c0-.5.074-.952.222-1.356.148-.404.352-.748.61-1.031a2.67 2.67 0 0 1 .91-.657 2.77 2.77 0 0 1 1.128-.231c.461 0 .862.077 1.202.231.34.155.62.37.843.648.223.277.389.607.498.99.11.383.164.803.164 1.26v.61h-4.142c.02.245.071.472.155.679.084.207.198.386.343.536a1.576 1.576 0 0 0 1.183.483c.352 0 .658-.07.917-.21.26-.141.486-.334.677-.58l.768.732a2.602 2.602 0 0 1-.905.823 3.034 3.034 0 0 1-.683.27c-.254.068-.54.102-.856.102zm-.17-5.431c-.39 0-.706.136-.946.41-.24.273-.393.654-.46 1.142h2.713v-.105a2.598 2.598 0 0 0-.09-.542 1.382 1.382 0 0 0-.226-.463 1.09 1.09 0 0 0-.396-.322c-.162-.08-.36-.12-.594-.12zm315.02 2.537c-.04.418-.137.803-.293 1.157a2.76 2.76 0 0 1-.65.917 2.935 2.935 0 0 1-1.017.603c-.4.145-.862.217-1.386.217-.523 0-.997-.095-1.42-.284a3.04 3.04 0 0 1-1.085-.809 3.654 3.654 0 0 1-.688-1.268 5.421 5.421 0 0 1-.24-1.67v-.691c0-.614.082-1.17.246-1.667.164-.499.398-.923.703-1.275a3.112 3.112 0 0 1 1.104-.814 3.54 3.54 0 0 1 1.45-.287c.508 0 .958.073 1.348.22.39.146.722.349.993.609.272.26.485.569.64.928.153.36.252.752.295 1.178H544.9a3.319 3.319 0 0 0-.16-.726 1.547 1.547 0 0 0-.326-.548 1.345 1.345 0 0 0-.533-.343 2.29 2.29 0 0 0-.78-.117c-.335 0-.63.063-.881.19-.252.127-.462.31-.63.55a2.592 2.592 0 0 0-.378.889 5.19 5.19 0 0 0-.126 1.2v.704c0 .426.037.812.111 1.16.074.348.19.646.346.894.156.248.357.44.603.577.247.137.541.205.885.205.32 0 .591-.037.812-.111.22-.075.403-.184.548-.329a1.49 1.49 0 0 0 .337-.533 3.2 3.2 0 0 0 .172-.726h1.477zM549.078 87h-1.424v-9h1.424v9zm1.283-3.229c0-.46.068-.887.202-1.28.135-.392.329-.733.58-1.022.253-.29.56-.516.923-.68a2.973 2.973 0 0 1 1.237-.246c.465 0 .88.082 1.248.246.367.164.677.39.928.68a3 3 0 0 1 .578 1.022c.132.393.199.82.199 1.28v.124c0 .46-.067.888-.2 1.283a2.963 2.963 0 0 1-.577 1.022c-.251.287-.56.512-.925.674a3.024 3.024 0 0 1-1.24.243 3.04 3.04 0 0 1-1.245-.243 2.637 2.637 0 0 1-.925-.674 3 3 0 0 1-.58-1.022 3.945 3.945 0 0 1-.203-1.283v-.124zm1.424.124c0 .285.03.554.088.808.059.254.15.476.275.665.125.19.285.339.478.448.193.11.423.164.688.164.262 0 .49-.054.683-.164.193-.109.352-.258.475-.448s.215-.411.275-.665c.06-.254.09-.523.09-.808v-.124c0-.28-.03-.547-.09-.8a2.07 2.07 0 0 0-.278-.661 1.434 1.434 0 0 0-.478-.455 1.338 1.338 0 0 0-.688-.17 1.31 1.31 0 0 0-.683.17c-.19.114-.347.265-.472.455-.125.189-.216.41-.275.662a3.522 3.522 0 0 0-.088.8v.123zm9.516 2.484c-.2.234-.446.416-.739.545-.292.129-.64.193-1.042.193a2.61 2.61 0 0 1-.853-.132 1.65 1.65 0 0 1-.66-.416 1.923 1.923 0 0 1-.427-.732 3.357 3.357 0 0 1-.152-1.075V80.66h1.424v4.113c0 .23.027.421.082.572a.97.97 0 0 0 .22.363.761.761 0 0 0 .319.193c.12.037.248.056.38.056.368 0 .665-.066.891-.2a1.27 1.27 0 0 0 .51-.544V80.66h1.424V87h-1.342l-.035-.621zm2.56-2.596c0-.48.058-.92.173-1.318.115-.399.281-.74.498-1.026.217-.285.48-.505.788-.662a2.276 2.276 0 0 1 1.043-.234c.352 0 .661.06.929.182.268.12.501.295.7.521V78h1.424v9h-1.289l-.07-.656a2.13 2.13 0 0 1-.724.571c-.28.135-.606.202-.981.202-.383 0-.728-.08-1.035-.243a2.34 2.34 0 0 1-.782-.67 3.187 3.187 0 0 1-.498-1.017 4.459 4.459 0 0 1-.176-1.28v-.124zm1.424.123c0 .282.027.546.08.794.052.248.136.466.251.654a1.3 1.3 0 0 0 .443.442c.18.107.398.161.656.161.32 0 .583-.071.788-.214a1.53 1.53 0 0 0 .49-.565V82.47a1.45 1.45 0 0 0-.493-.557c-.207-.137-.465-.205-.773-.205-.258 0-.478.055-.66.164-.181.11-.33.258-.445.445a2.1 2.1 0 0 0-.255.66c-.054.251-.082.52-.082.805v.123zm13.201.897c0-.172-.025-.325-.076-.46a.91.91 0 0 0-.278-.372 2.312 2.312 0 0 0-.557-.325 8.56 8.56 0 0 0-.91-.326 8.778 8.778 0 0 1-1.126-.416 3.886 3.886 0 0 1-.888-.545 2.333 2.333 0 0 1-.583-.714c-.14-.27-.21-.579-.21-.926 0-.344.073-.66.22-.95.146-.289.352-.539.617-.75.266-.21.584-.374.955-.492a4.072 4.072 0 0 1 1.23-.175c.481 0 .913.069 1.296.208a2.9 2.9 0 0 1 .97.565 2.433 2.433 0 0 1 .817 1.834h-1.477c0-.207-.032-.397-.096-.571a1.186 1.186 0 0 0-.296-.451 1.362 1.362 0 0 0-.504-.296 2.208 2.208 0 0 0-.72-.106c-.263 0-.49.03-.68.088-.192.059-.351.14-.478.246a.97.97 0 0 0-.281.375 1.2 1.2 0 0 0-.091.469c0 .316.15.58.448.79.299.212.755.407 1.368.587.48.14.897.297 1.248.469.352.171.644.366.876.583.233.216.406.46.519.732.113.272.17.577.17.917 0 .36-.072.683-.214.97a2.071 2.071 0 0 1-.61.732 2.86 2.86 0 0 1-.957.463 4.548 4.548 0 0 1-1.254.161 4.46 4.46 0 0 1-1.213-.167 3.43 3.43 0 0 1-1.073-.504 2.626 2.626 0 0 1-.764-.84c-.194-.336-.29-.731-.29-1.184h1.482c0 .27.048.5.144.694.095.194.226.352.392.475s.363.213.59.27c.226.056.47.084.732.084.515 0 .903-.104 1.163-.313.26-.21.39-.486.39-.83zm9.563-1.846c0 .809-.128 1.509-.384 2.1-.256.592-.614 1.062-1.075 1.41l1.465 1.142-.961.868-1.817-1.436a3.68 3.68 0 0 1-.767.076c-.52 0-.996-.096-1.43-.287a3.198 3.198 0 0 1-1.122-.823 3.79 3.79 0 0 1-.732-1.307c-.174-.513-.261-1.095-.261-1.743v-.434c0-.648.087-1.23.26-1.746.174-.515.417-.953.727-1.312.31-.36.683-.635 1.116-.826.434-.192.91-.287 1.43-.287.531 0 1.016.095 1.453.287.438.191.812.466 1.122.826.31.36.551.797.72 1.312.17.516.256 1.098.256 1.746v.434zm-1.488-.445c0-.961-.18-1.69-.54-2.186-.359-.496-.867-.744-1.523-.744-.316 0-.6.064-.852.19a1.777 1.777 0 0 0-.645.56 2.738 2.738 0 0 0-.41.917 5.003 5.003 0 0 0-.144 1.263v.445c0 .477.05.898.147 1.266.097.367.235.674.413.923.178.248.393.435.647.562.254.127.54.19.856.19.66 0 1.167-.25 1.52-.75.354-.5.53-1.23.53-2.191v-.445zm4.476 3.304h3.873V87h-5.355v-8.531h1.482v7.347z" fill="#000"/><path d="M147.95 173.185h-36c-1.1 0-2-.9-2-2v-36c0-1.1.9-2 2-2h36c1.1 0 2 .9 2 2v36c0 1.1-.9 2-2 2z" fill="#FFF"/><path d="M121.949 155.983h16v-10h-16v10zm6 3h4v-1h-4v1zm12 0v-15h-20v15h-2v2h24v-2h-2z" fill="#616161"/><path d="M277.692 173.185h-36c-1.1 0-2-.9-2-2v-36c0-1.1.9-2 2-2h36c1.1 0 2 .9 2 2v36c0 1.1-.9 2-2 2" fill="#FFF"/><path d="M251.692 153.983h2v-2h-2v2zm-2 1h20v-4h-20v4zm2-7h2v-2h-2v2zm-2 1h20v-4h-20v4zm2 11h2v-2h-2v2zm-2 1h20v-4h-20v4z" fill="#616161"/><path d="M484.973 173.185c-1.1 0-2-.9-2-2v-36c0-1.1.9-2 2-2h36c1.1 0 2 .9 2 2v36c0 1.1-.9 2-2 2h-36zm163.742 0h-36c-1.1 0-2-.9-2-2v-36c0-1.1.9-2 2-2h36c1.1 0 2 .9 2 2v36c0 1.1-.9 2-2 2" fill="#FFF"/><path d="M494.973 153.983h2v-2h-2v2zm-2 1h20v-4h-20v4zm2-7h2v-2h-2v2zm-2 1h20v-4h-20v4zm2 11h2v-2h-2v2zm-2 1h20v-4h-20v4zm138.797-10.598l-5.854-3.104 5.855-2.993 5.68 2.993-5.68 3.104zm-.02-9.423l-9.374 4.49v3.603l9.402 4.794 9.277-4.683v-3.603l-9.305-4.601z" fill="#616161"/><path fill="#616161" d="M622.376 151.216l9.312 4.656 9.367-4.656v3.714l-9.312 4.766-9.353-4.912z"/><path fill="#616161" d="M622.376 156.482l9.312 4.656 9.367-4.656v3.714l-9.312 4.766-9.353-4.912z"/><path d="M80.125 296.15h.773c.281 0 .527-.037.738-.11.211-.075.387-.178.528-.308.14-.131.246-.286.316-.463.07-.178.105-.372.105-.583 0-.489-.123-.86-.369-1.117-.246-.255-.62-.383-1.125-.383-.23 0-.44.034-.63.102a1.304 1.304 0 0 0-.8.756 1.59 1.59 0 0 0-.11.607h-1.085c0-.329.063-.635.188-.92a2.22 2.22 0 0 1 .533-.747c.23-.213.507-.381.83-.504.321-.123.68-.185 1.074-.185.387 0 .739.052 1.055.155.316.104.587.256.812.457.224.202.399.453.524.753.125.301.187.65.187 1.05 0 .16-.026.327-.079.503a2.05 2.05 0 0 1-.24.516 2.168 2.168 0 0 1-.416.471 2.24 2.24 0 0 1-.606.367c.28.09.516.208.706.354a1.858 1.858 0 0 1 .694 1.058c.047.199.07.394.07.586 0 .398-.068.753-.205 1.063a2.19 2.19 0 0 1-.568.782 2.522 2.522 0 0 1-.856.484 3.318 3.318 0 0 1-1.072.167c-.37 0-.72-.052-1.049-.156a2.563 2.563 0 0 1-.86-.457 2.164 2.164 0 0 1-.584-.744 2.294 2.294 0 0 1-.214-1.01h1.09c0 .222.037.424.111.606.075.182.182.338.323.469.14.13.31.231.51.301.199.07.423.106.673.106.25 0 .475-.032.674-.097.2-.064.37-.163.51-.296.14-.132.248-.298.322-.498.074-.199.111-.431.111-.697a1.7 1.7 0 0 0-.129-.691 1.258 1.258 0 0 0-.366-.484 1.585 1.585 0 0 0-.571-.284 2.775 2.775 0 0 0-.75-.094h-.773v-.884zm8.337-.574a2.867 2.867 0 0 0-.533-.04c-.375 0-.68.081-.917.245a1.495 1.495 0 0 0-.53.662v4.5h-1.084v-6.34h1.055l.017.733c.164-.262.37-.469.615-.621.247-.152.545-.229.897-.229a1.602 1.602 0 0 1 .48.082v1.008zm.509 2.145c0-.485.06-.925.178-1.321.12-.397.289-.737.507-1.02.219-.283.482-.503.788-.66.307-.155.65-.234 1.029-.234.386 0 .724.066 1.013.197.29.13.54.32.75.565v-3.305h1.084v9h-.996l-.052-.68a2.112 2.112 0 0 1-.762.593 2.487 2.487 0 0 1-1.049.205c-.371 0-.71-.08-1.017-.24a2.353 2.353 0 0 1-.788-.671 3.196 3.196 0 0 1-.507-1.02 4.412 4.412 0 0 1-.178-1.286v-.123zm1.084.123c0 .316.032.614.096.893.065.28.165.523.302.73.137.207.31.371.522.492.21.121.463.182.756.182.19 0 .363-.023.515-.068a1.509 1.509 0 0 0 .741-.483c.096-.113.18-.238.25-.375v-2.912a2.072 2.072 0 0 0-.247-.358 1.512 1.512 0 0 0-.738-.471 1.8 1.8 0 0 0-.51-.068c-.297 0-.552.062-.764.185a1.54 1.54 0 0 0-.525.5 2.307 2.307 0 0 0-.302.736c-.064.28-.096.577-.096.894v.123zm10.213-.24v3.34h-1.125v-8.532h3.146c.484 0 .912.065 1.283.194.371.129.683.31.935.542a2.3 2.3 0 0 1 .574.826c.131.318.196.667.196 1.046a2.9 2.9 0 0 1-.196 1.098c-.13.323-.322.593-.574.812a2.564 2.564 0 0 1-.935.5 4.332 4.332 0 0 1-1.283.174h-2.021zm0-.92h2.021c.328 0 .61-.041.847-.123a1.54 1.54 0 0 0 .58-.343c.15-.147.26-.32.33-.522.071-.2.106-.422.106-.665 0-.218-.035-.43-.105-.635a1.451 1.451 0 0 0-.331-.542 1.62 1.62 0 0 0-.58-.375 2.294 2.294 0 0 0-.847-.141h-2.021v3.346zm10.053 4.26a1.174 1.174 0 0 1-.094-.296 5.12 5.12 0 0 1-.059-.372 2.887 2.887 0 0 1-.343.301 2.369 2.369 0 0 1-1.462.483c-.324 0-.618-.048-.881-.146a2.054 2.054 0 0 1-.674-.398 1.755 1.755 0 0 1-.43-.595 1.79 1.79 0 0 1-.153-.735c0-.34.066-.64.2-.9.132-.26.322-.477.57-.653.248-.176.548-.309.9-.398a4.76 4.76 0 0 1 1.178-.135h1.078v-.498c0-.38-.114-.681-.34-.906-.227-.224-.56-.336-1.002-.336a1.79 1.79 0 0 0-.557.082 1.418 1.418 0 0 0-.43.22c-.12.091-.212.198-.279.319a.781.781 0 0 0-.1.38h-1.09c0-.226.06-.45.18-.673.119-.223.288-.423.506-.6.22-.179.484-.323.794-.435a3.1 3.1 0 0 1 1.04-.167c.344 0 .661.044.952.132.292.088.54.221.748.399.207.177.369.4.486.665.117.265.176.576.176.931v2.948c0 .215.018.44.055.676.037.237.093.44.167.613v.093h-1.136zm-1.8-.827c.196 0 .38-.027.552-.082.171-.054.328-.126.468-.214.14-.087.263-.188.367-.301.103-.114.184-.23.243-.352v-1.3h-.903c-.62 0-1.1.096-1.435.29a.947.947 0 0 0-.504.875c0 .153.025.295.076.428.05.133.128.247.232.343.103.096.23.172.38.228.15.057.326.085.525.085zm7.477-4.54a2.867 2.867 0 0 0-.533-.042c-.375 0-.68.082-.917.246a1.495 1.495 0 0 0-.53.662v4.5h-1.084v-6.34h1.055l.017.733c.164-.262.37-.469.615-.621.246-.152.545-.229.897-.229a1.602 1.602 0 0 1 .48.082v1.008zm3.058-2.509v1.536h1.183v.838h-1.183v3.931c0 .164.02.296.058.396.04.1.091.176.156.231a.493.493 0 0 0 .222.109c.084.017.171.026.261.026s.185-.009.284-.026l.232-.044v.878a5.165 5.165 0 0 1-.334.077 2.584 2.584 0 0 1-.498.04c-.2 0-.388-.028-.566-.084a1.139 1.139 0 0 1-.466-.284 1.4 1.4 0 0 1-.316-.525 2.376 2.376 0 0 1-.117-.8v-3.925h-1.155v-.838h1.155v-1.536h1.084zm4.523 6.288l1.477-4.752h1.16l-2.549 7.318a4.968 4.968 0 0 1-.228.51 2.186 2.186 0 0 1-.367.512c-.15.159-.33.291-.542.399a1.62 1.62 0 0 1-.896.15 5.45 5.45 0 0 1-.457-.083v-.879a.395.395 0 0 0 .064.01 17.978 17.978 0 0 0 .229.014c.183 0 .345-.018.486-.053.14-.035.266-.093.375-.173.11-.08.204-.186.284-.32.08-.132.154-.296.22-.491l.24-.645-2.261-6.27h1.183l1.582 4.753zm13.02-1.12a3.94 3.94 0 0 1-.296 1.123c-.15.345-.359.644-.624.896a2.82 2.82 0 0 1-.973.592c-.383.142-.83.214-1.342.214a3.26 3.26 0 0 1-1.37-.282 2.976 2.976 0 0 1-1.053-.8 3.686 3.686 0 0 1-.673-1.244 5.21 5.21 0 0 1-.238-1.624v-.855c0-.598.08-1.14.24-1.626.16-.486.39-.902.686-1.248a3.042 3.042 0 0 1 1.081-.803c.424-.19.9-.284 1.427-.284.48 0 .906.07 1.277.211.371.14.687.337.947.589a2.8 2.8 0 0 1 .618.902c.152.35.25.736.293 1.157h-1.131a3.83 3.83 0 0 0-.2-.802 1.806 1.806 0 0 0-.371-.61 1.564 1.564 0 0 0-.59-.386 2.36 2.36 0 0 0-.843-.135 2.17 2.17 0 0 0-1 .22 2.024 2.024 0 0 0-.72.615 2.794 2.794 0 0 0-.436.955 4.866 4.866 0 0 0-.147 1.233v.867c0 .418.044.811.132 1.178.088.367.222.689.401.964.18.275.409.492.686.65.277.159.605.238.984.238.36 0 .662-.043.909-.13.246-.085.45-.21.612-.371a1.68 1.68 0 0 0 .378-.598c.09-.236.158-.505.205-.806h1.13zm1.078-.521c0-.461.067-.888.202-1.28.135-.393.326-.734.574-1.023.248-.289.55-.515.905-.68a2.82 2.82 0 0 1 1.196-.246c.449 0 .852.082 1.21.247.357.164.66.39.91.68.25.288.442.63.575 1.022.133.392.2.819.2 1.28v.129c0 .46-.067.888-.2 1.28a2.994 2.994 0 0 1-.574 1.02c-.25.287-.553.511-.908.674a2.863 2.863 0 0 1-1.202.243c-.445 0-.845-.081-1.2-.243a2.642 2.642 0 0 1-.909-.674 3.032 3.032 0 0 1-.577-1.02 3.919 3.919 0 0 1-.202-1.28v-.129zm1.09.129c0 .316.037.615.111.896.074.282.187.529.337.742.15.212.338.381.562.506.225.125.488.188.788.188a1.6 1.6 0 0 0 .786-.188c.226-.125.414-.294.562-.506.149-.213.26-.46.337-.742.076-.28.114-.58.114-.896v-.129c0-.313-.038-.61-.114-.894a2.322 2.322 0 0 0-.34-.744 1.591 1.591 0 0 0-1.356-.7 1.56 1.56 0 0 0-.78.19 1.738 1.738 0 0 0-.56.51c-.15.213-.262.461-.336.744a3.511 3.511 0 0 0-.111.894v.129zm5.777-.123c0-.485.06-.925.179-1.321.119-.397.288-.737.507-1.02a2.32 2.32 0 0 1 .788-.66 2.244 2.244 0 0 1 1.028-.234c.387 0 .725.066 1.014.197.289.13.539.32.75.565v-3.305h1.084v9h-.996l-.053-.68a2.112 2.112 0 0 1-.762.593 2.487 2.487 0 0 1-1.049.205c-.37 0-.71-.08-1.016-.24a2.353 2.353 0 0 1-.788-.671 3.196 3.196 0 0 1-.507-1.02 4.412 4.412 0 0 1-.179-1.286v-.123zm1.084.123c0 .316.032.614.097.893.064.28.165.523.301.73.137.207.311.371.522.492.21.121.463.182.756.182.191 0 .363-.023.515-.068a1.509 1.509 0 0 0 .742-.483c.095-.113.178-.238.249-.375v-2.912a2.072 2.072 0 0 0-.246-.358 1.512 1.512 0 0 0-.739-.471 1.8 1.8 0 0 0-.51-.068c-.296 0-.551.062-.764.185a1.54 1.54 0 0 0-.525.5 2.306 2.306 0 0 0-.301.736 3.94 3.94 0 0 0-.097.894v.123zm8.578 3.217c-.441 0-.84-.076-1.198-.229a2.674 2.674 0 0 1-.917-.636 2.81 2.81 0 0 1-.586-.97 3.567 3.567 0 0 1-.205-1.23v-.246c0-.515.077-.976.231-1.383a3.11 3.11 0 0 1 .618-1.025c.258-.277.553-.49.885-.636.332-.146.678-.22 1.037-.22.453 0 .844.08 1.172.238.328.158.599.376.812.653.213.277.37.606.471.984.102.38.153.791.153 1.237v.486h-4.295c.008.293.056.567.143.82a2 2 0 0 0 .375.663c.163.187.358.335.586.445.229.11.488.164.777.164.383 0 .707-.078.972-.234.266-.157.498-.364.698-.622l.662.516a2.895 2.895 0 0 1-.37.454 2.518 2.518 0 0 1-.506.393 2.667 2.667 0 0 1-.665.275c-.25.069-.533.103-.85.103zm-.135-5.684c-.218 0-.42.04-.603.12-.184.08-.348.196-.492.349a1.876 1.876 0 0 0-.36.568 2.88 2.88 0 0 0-.197.78h3.176v-.083a3 3 0 0 0-.103-.626 1.703 1.703 0 0 0-.263-.557 1.359 1.359 0 0 0-.46-.399 1.45 1.45 0 0 0-.698-.152zm42.985 2.86a3.94 3.94 0 0 1-.296 1.122c-.15.345-.359.644-.624.896a2.82 2.82 0 0 1-.973.592c-.383.142-.83.214-1.342.214a3.26 3.26 0 0 1-1.37-.282 2.976 2.976 0 0 1-1.053-.8 3.686 3.686 0 0 1-.673-1.244 5.21 5.21 0 0 1-.238-1.624v-.855c0-.598.08-1.14.24-1.626.16-.486.39-.902.686-1.248a3.042 3.042 0 0 1 1.081-.803c.424-.19.9-.284 1.427-.284.48 0 .906.07 1.277.211.371.14.687.337.947.589a2.8 2.8 0 0 1 .618.902c.152.35.25.736.293 1.157h-1.131a3.83 3.83 0 0 0-.2-.802 1.806 1.806 0 0 0-.371-.61 1.564 1.564 0 0 0-.59-.386 2.36 2.36 0 0 0-.843-.135 2.17 2.17 0 0 0-1 .22 2.024 2.024 0 0 0-.72.615 2.794 2.794 0 0 0-.436.955 4.866 4.866 0 0 0-.147 1.233v.867c0 .418.044.811.132 1.178.088.367.222.689.401.964.18.275.409.492.686.65.277.159.605.238.984.238.36 0 .662-.043.909-.13.246-.085.45-.21.612-.371a1.68 1.68 0 0 0 .378-.598c.09-.236.158-.505.205-.806h1.13zm2.543 2.706h-1.084v-9h1.084v9zm1.447-3.228c0-.461.067-.888.202-1.28.135-.393.326-.734.574-1.023.248-.289.55-.515.906-.68a2.82 2.82 0 0 1 1.195-.246c.45 0 .852.082 1.21.247.357.164.661.39.911.68.25.288.441.63.574 1.022.133.392.2.819.2 1.28v.129c0 .46-.067.888-.2 1.28a2.994 2.994 0 0 1-.574 1.02c-.25.287-.553.511-.908.674a2.863 2.863 0 0 1-1.201.243c-.446 0-.846-.081-1.202-.243a2.642 2.642 0 0 1-.908-.674 3.032 3.032 0 0 1-.577-1.02 3.919 3.919 0 0 1-.202-1.28v-.129zm1.09.129c0 .316.037.615.111.896.074.282.187.529.337.742.15.212.338.381.563.506.224.125.487.188.788.188.296 0 .558-.063.785-.188.226-.125.414-.294.562-.506.149-.213.261-.46.337-.742.076-.28.114-.58.114-.896v-.129c0-.313-.038-.61-.114-.894a2.322 2.322 0 0 0-.34-.744 1.591 1.591 0 0 0-1.356-.7 1.56 1.56 0 0 0-.78.19 1.724 1.724 0 0 0-.559.51c-.15.213-.263.461-.337.744a3.511 3.511 0 0 0-.111.894v.129zm9.955 2.473a2.02 2.02 0 0 1-.756.547c-.305.131-.672.197-1.102.197-.312 0-.595-.044-.85-.132a1.654 1.654 0 0 1-.655-.416 1.894 1.894 0 0 1-.425-.733c-.1-.298-.15-.659-.15-1.08v-4.096h1.084v4.107c0 .285.034.52.1.706.066.186.154.332.264.44a.88.88 0 0 0 .375.222c.14.041.285.062.433.062.442 0 .796-.084 1.064-.252.267-.168.464-.393.589-.674v-4.611h1.084v6.34h-1.032l-.023-.627zm2.437-2.596c0-.485.06-.925.18-1.321.118-.397.287-.737.506-1.02.219-.283.481-.503.788-.66a2.25 2.25 0 0 1 1.028-.234c.387 0 .725.066 1.014.197.29.13.54.32.75.565v-3.305h1.084v9h-.996l-.053-.68c-.21.259-.465.456-.762.593a2.487 2.487 0 0 1-1.048.205c-.371 0-.71-.08-1.017-.24a2.353 2.353 0 0 1-.788-.671 3.196 3.196 0 0 1-.507-1.02 4.412 4.412 0 0 1-.179-1.286v-.123zm1.084.123c0 .316.033.614.097.893.064.28.165.523.302.73.137.207.31.371.521.492.211.121.463.182.756.182.192 0 .363-.023.516-.068a1.509 1.509 0 0 0 .741-.483 1.94 1.94 0 0 0 .249-.375v-2.912a2.072 2.072 0 0 0-.246-.358 1.512 1.512 0 0 0-.738-.471 1.8 1.8 0 0 0-.51-.068c-.297 0-.552.062-.765.185-.213.123-.387.29-.524.5a2.284 2.284 0 0 0-.302.736c-.064.28-.097.577-.097.894v.123zm13.635.943c0-.199-.03-.375-.09-.527a1.051 1.051 0 0 0-.323-.419 2.567 2.567 0 0 0-.624-.357 9.12 9.12 0 0 0-.996-.343 8.462 8.462 0 0 1-1.146-.413 3.763 3.763 0 0 1-.873-.534 2.15 2.15 0 0 1-.553-.688 1.952 1.952 0 0 1-.194-.885c0-.332.07-.64.208-.923a2.2 2.2 0 0 1 .59-.738c.253-.209.558-.372.913-.49a3.785 3.785 0 0 1 1.19-.175c.48 0 .908.072 1.283.217a2.9 2.9 0 0 1 .946.574 2.448 2.448 0 0 1 .782 1.793h-1.13c0-.238-.039-.459-.115-.662a1.392 1.392 0 0 0-.348-.527 1.608 1.608 0 0 0-.586-.346 2.523 2.523 0 0 0-.832-.123c-.301 0-.563.035-.785.105-.223.07-.407.167-.551.29a1.152 1.152 0 0 0-.323.437c-.07.168-.105.351-.105.55 0 .18.038.344.114.493.076.148.195.285.355.41.16.125.366.24.618.346.252.105.554.207.905.304.485.137.903.288 1.254.454.352.167.642.355.87.566.229.21.399.447.51.709.111.262.167.558.167.89 0 .348-.07.663-.211.944a2.05 2.05 0 0 1-.6.72c-.26.2-.573.353-.938.46a4.323 4.323 0 0 1-1.222.162c-.261 0-.523-.025-.785-.074a3.887 3.887 0 0 1-.753-.22 3.335 3.335 0 0 1-.668-.363 2.581 2.581 0 0 1-.536-.503 2.256 2.256 0 0 1-.357-.645 2.3 2.3 0 0 1-.13-.785h1.132c0 .293.057.544.172.753.116.209.27.382.463.518.194.137.416.238.668.302.252.065.517.097.794.097.594 0 1.05-.121 1.366-.364.316-.242.474-.572.474-.99zm9.088-1.834c0 .824-.13 1.534-.393 2.13-.261.596-.628 1.062-1.101 1.398l1.523 1.195-.767.709-1.8-1.43a3.66 3.66 0 0 1-.89.106 3.38 3.38 0 0 1-1.388-.282 3.053 3.053 0 0 1-1.09-.814 3.798 3.798 0 0 1-.71-1.292 5.479 5.479 0 0 1-.251-1.72v-.539c0-.637.084-1.21.252-1.72.168-.51.402-.942.703-1.297.3-.356.662-.628 1.084-.818a3.35 3.35 0 0 1 1.389-.284c.52 0 .99.095 1.415.284.423.19.786.462 1.087.818.3.355.532.788.694 1.297.162.51.243 1.083.243 1.72v.54zm-1.125-.55c0-.508-.052-.958-.155-1.348a2.865 2.865 0 0 0-.451-.985 1.928 1.928 0 0 0-.727-.603 2.256 2.256 0 0 0-.981-.205c-.348 0-.664.068-.947.205a1.99 1.99 0 0 0-.726.603 2.916 2.916 0 0 0-.466.985c-.11.39-.164.84-.164 1.347v.551c0 .512.055.963.167 1.354.111.39.267.72.469.987.2.268.444.47.73.607.284.136.6.205.948.205.367 0 .694-.069.979-.205.285-.137.526-.34.723-.607.198-.267.347-.597.449-.987a5.43 5.43 0 0 0 .152-1.354v-.55zm3.99 3.62h4.043v.92h-5.174v-8.53h1.131v7.61zm14.573-1.787a3.94 3.94 0 0 1-.296 1.123c-.15.345-.359.644-.624.896a2.82 2.82 0 0 1-.973.592c-.383.142-.83.214-1.342.214a3.26 3.26 0 0 1-1.371-.282 2.976 2.976 0 0 1-1.052-.8 3.686 3.686 0 0 1-.674-1.244 5.21 5.21 0 0 1-.237-1.624v-.855c0-.598.08-1.14.24-1.626.16-.486.39-.902.686-1.248a3.042 3.042 0 0 1 1.081-.803c.424-.19.9-.284 1.427-.284.48 0 .906.07 1.277.211.371.14.687.337.946.589a2.8 2.8 0 0 1 .619.902c.152.35.25.736.293 1.157h-1.131a3.83 3.83 0 0 0-.2-.802 1.806 1.806 0 0 0-.372-.61 1.564 1.564 0 0 0-.589-.386 2.36 2.36 0 0 0-.843-.135 2.17 2.17 0 0 0-1 .22 2.024 2.024 0 0 0-.72.615 2.794 2.794 0 0 0-.437.955 4.866 4.866 0 0 0-.146 1.233v.867c0 .418.044.811.132 1.178.088.367.222.689.401.964.18.275.408.492.686.65.277.159.605.238.984.238.36 0 .662-.043.908-.13.246-.085.45-.21.613-.371a1.68 1.68 0 0 0 .378-.598c.09-.236.158-.505.205-.806h1.13zm1.078-.521c0-.461.067-.888.202-1.28.135-.393.326-.734.574-1.023.248-.289.55-.515.905-.68a2.82 2.82 0 0 1 1.196-.246c.449 0 .852.082 1.21.247.357.164.66.39.91.68.25.288.442.63.575 1.022.133.392.2.819.2 1.28v.129c0 .46-.067.888-.2 1.28a2.994 2.994 0 0 1-.574 1.02c-.25.287-.553.511-.909.674a2.863 2.863 0 0 1-1.2.243c-.446 0-.846-.081-1.202-.243a2.642 2.642 0 0 1-.908-.674 3.032 3.032 0 0 1-.577-1.02 3.919 3.919 0 0 1-.202-1.28v-.129zm1.09.129c0 .316.037.615.11.896.075.282.187.529.338.742.15.212.338.381.562.506.225.125.488.188.788.188a1.597 1.597 0 0 0 1.348-.694c.148-.213.26-.46.337-.742.076-.28.114-.58.114-.896v-.129c0-.313-.038-.61-.114-.894a2.322 2.322 0 0 0-.34-.744 1.591 1.591 0 0 0-1.356-.7 1.56 1.56 0 0 0-.78.19 1.738 1.738 0 0 0-.56.51c-.15.213-.262.461-.336.744a3.511 3.511 0 0 0-.112.894v.129zm5.777-.123c0-.485.06-.925.179-1.321.119-.397.288-.737.506-1.02.22-.283.482-.503.788-.66.307-.155.65-.234 1.029-.234.386 0 .724.066 1.013.197.29.13.54.32.75.565v-3.305h1.084v9h-.996l-.052-.68a2.112 2.112 0 0 1-.762.593 2.487 2.487 0 0 1-1.049.205c-.371 0-.71-.08-1.017-.24a2.353 2.353 0 0 1-.788-.671 3.196 3.196 0 0 1-.506-1.02 4.412 4.412 0 0 1-.18-1.286v-.123zm1.084.123c0 .316.032.614.096.893.065.28.166.523.302.73.137.207.31.371.522.492.21.121.463.182.756.182.191 0 .363-.023.515-.068a1.509 1.509 0 0 0 .741-.483c.096-.113.18-.238.25-.375v-2.912a2.072 2.072 0 0 0-.247-.358 1.512 1.512 0 0 0-.738-.471 1.8 1.8 0 0 0-.51-.068c-.297 0-.551.062-.764.185a1.54 1.54 0 0 0-.525.5 2.33 2.33 0 0 0-.302.736c-.064.28-.096.577-.096.894v.123zm8.578 3.217c-.441 0-.84-.076-1.198-.229a2.674 2.674 0 0 1-.917-.636 2.81 2.81 0 0 1-.586-.97 3.567 3.567 0 0 1-.205-1.23v-.246c0-.515.077-.976.231-1.383.154-.406.36-.748.618-1.025.258-.277.553-.49.885-.636.332-.146.678-.22 1.037-.22.453 0 .844.08 1.172.238.328.158.599.376.812.653.212.277.37.606.471.984.102.38.153.791.153 1.237v.486h-4.295c.007.293.055.567.143.82a2 2 0 0 0 .375.663c.162.187.358.335.586.445.229.11.487.164.777.164.382 0 .707-.078.972-.234.266-.157.498-.364.697-.622l.663.516a2.895 2.895 0 0 1-.37.454 2.518 2.518 0 0 1-.506.393 2.667 2.667 0 0 1-.665.275c-.25.069-.534.103-.85.103zm-.135-5.684c-.219 0-.42.04-.603.12-.184.08-.348.196-.493.349a1.876 1.876 0 0 0-.36.568 2.88 2.88 0 0 0-.196.78h3.176v-.083a3 3 0 0 0-.103-.626 1.702 1.702 0 0 0-.264-.557 1.359 1.359 0 0 0-.46-.399 1.45 1.45 0 0 0-.697-.152z" fill="#000"/><path fill="#616161" fill-rule="nonzero" d="M130.49 234.1v-25.632h-1V235.1h133.333v-27.299h-1v26.3z"/><path fill="#616161" d="M259.051 210.452l.587.546 2.685-2.89 2.686 2.89.585-.546-3.272-3.518zm-125.789.667l-.586.546-2.685-2.89-2.686 2.89-.586-.546 3.272-3.518z"/><path d="M159.768 245.834h3.369v.766h-4.312v-7.11h.943v6.344zm4.057-1.924c0-.384.056-.74.169-1.067.112-.327.271-.611.478-.852.207-.241.458-.43.755-.566a2.35 2.35 0 0 1 .996-.206c.374 0 .71.069 1.008.206.298.136.55.325.76.566.208.24.367.525.478.852.11.327.166.683.166 1.067v.107c0 .384-.056.74-.166 1.067-.11.327-.27.61-.479.85a2.18 2.18 0 0 1-.757.561c-.296.135-.63.203-1 .203-.372 0-.705-.068-1.002-.203a2.202 2.202 0 0 1-.756-.561 2.527 2.527 0 0 1-.481-.85 3.266 3.266 0 0 1-.169-1.067v-.107zm.908.107c0 .264.031.513.093.747a1.9 1.9 0 0 0 .28.618 1.318 1.318 0 0 0 1.126.579 1.325 1.325 0 0 0 1.123-.579 1.97 1.97 0 0 0 .281-.618 2.82 2.82 0 0 0 .095-.747v-.107c0-.26-.031-.509-.095-.745a1.935 1.935 0 0 0-.283-.62 1.326 1.326 0 0 0-1.13-.583c-.248 0-.464.053-.65.158a1.436 1.436 0 0 0-.466.425 1.897 1.897 0 0 0-.28.62 2.926 2.926 0 0 0-.094.745v.107zm7.154 1.944a1.36 1.36 0 0 0 .847-.293c.112-.091.203-.2.273-.325a1.01 1.01 0 0 0 .125-.408h.854a1.578 1.578 0 0 1-.193.672c-.115.213-.267.4-.456.561a2.247 2.247 0 0 1-1.45.53c-.397 0-.743-.07-1.038-.212a2.105 2.105 0 0 1-.735-.574 2.43 2.43 0 0 1-.437-.84 3.488 3.488 0 0 1-.144-1.01v-.206c0-.355.048-.692.144-1.01a2.43 2.43 0 0 1 .437-.84c.196-.241.44-.433.733-.574a2.355 2.355 0 0 1 1.035-.213c.31 0 .59.05.842.147.252.098.47.232.654.403.184.17.328.373.433.608.104.234.162.486.175.757h-.854a1.375 1.375 0 0 0-.115-.457 1.197 1.197 0 0 0-.64-.623 1.274 1.274 0 0 0-.495-.092c-.28 0-.512.055-.696.166-.184.11-.332.256-.444.437a1.83 1.83 0 0 0-.237.61 3.441 3.441 0 0 0-.068.681v.205c0 .235.022.465.068.691.045.226.124.429.234.608.11.18.259.324.445.435.185.11.42.166.703.166zm6.377.64a.978.978 0 0 1-.078-.247 4.67 4.67 0 0 1-.05-.31 2.42 2.42 0 0 1-.285.251 2.046 2.046 0 0 1-.754.352 2.036 2.036 0 0 1-.464.051c-.27 0-.515-.04-.735-.122a1.712 1.712 0 0 1-.562-.332 1.463 1.463 0 0 1-.485-1.109c0-.283.055-.533.166-.75.11-.216.269-.397.476-.543.206-.147.456-.258.75-.333a4 4 0 0 1 .98-.112h.9v-.415c0-.316-.095-.567-.284-.754-.189-.187-.467-.281-.835-.281-.17 0-.324.023-.464.068a1.2 1.2 0 0 0-.359.183.854.854 0 0 0-.232.267.65.65 0 0 0-.083.317h-.908c0-.189.05-.376.149-.562.1-.185.24-.352.422-.5.183-.148.403-.269.662-.361.259-.093.548-.14.867-.14.286 0 .55.037.793.11.243.074.45.184.623.332.172.148.307.333.405.555.098.22.146.48.146.776v2.456c0 .179.016.367.047.564.03.197.077.367.139.51v.078h-.947zm-1.5-.69c.163 0 .316-.022.46-.068.143-.045.273-.105.39-.178a1.43 1.43 0 0 0 .305-.251c.087-.095.154-.192.203-.293v-1.084h-.752c-.517 0-.916.08-1.196.242a.79.79 0 0 0-.42.73.99.99 0 0 0 .063.356c.043.11.107.206.193.286a.96.96 0 0 0 .318.19c.125.047.27.07.437.07zm4.659.69h-.903v-7.5h.903v7.5zm6.04-.64a1.36 1.36 0 0 0 .847-.293c.112-.091.204-.2.273-.325a1.01 1.01 0 0 0 .125-.408h.855a1.578 1.578 0 0 1-.193.672c-.116.213-.268.4-.457.561a2.247 2.247 0 0 1-1.45.53c-.397 0-.743-.07-1.038-.212a2.105 2.105 0 0 1-.735-.574 2.43 2.43 0 0 1-.437-.84 3.488 3.488 0 0 1-.144-1.01v-.206c0-.355.048-.692.144-1.01a2.43 2.43 0 0 1 .437-.84c.196-.241.44-.433.733-.574a2.355 2.355 0 0 1 1.035-.213c.31 0 .59.05.842.147.253.098.47.232.655.403.184.17.328.373.432.608.104.234.162.486.175.757h-.854a1.375 1.375 0 0 0-.115-.457 1.197 1.197 0 0 0-.64-.623 1.274 1.274 0 0 0-.495-.092c-.28 0-.512.055-.696.166-.184.11-.332.256-.444.437a1.83 1.83 0 0 0-.237.61 3.441 3.441 0 0 0-.068.681v.205c0 .235.022.465.068.691.046.226.124.429.234.608.111.18.26.324.445.435.185.11.42.166.703.166zm2.876-2.051c0-.384.056-.74.168-1.067.113-.327.272-.611.479-.852.207-.241.458-.43.754-.566a2.35 2.35 0 0 1 .996-.206c.375 0 .71.069 1.009.206.297.136.55.325.759.566.208.24.368.525.478.852.111.327.166.683.166 1.067v.107c0 .384-.055.74-.166 1.067-.11.327-.27.61-.478.85a2.18 2.18 0 0 1-.757.561c-.296.135-.63.203-1 .203-.372 0-.706-.068-1.002-.203a2.202 2.202 0 0 1-.757-.561 2.527 2.527 0 0 1-.48-.85 3.266 3.266 0 0 1-.17-1.067v-.107zm.908.107c0 .264.031.513.093.747a1.9 1.9 0 0 0 .28.618c.126.177.282.318.47.422.187.105.405.157.656.157a1.321 1.321 0 0 0 1.124-.579 1.97 1.97 0 0 0 .28-.618c.063-.234.095-.483.095-.747v-.107c0-.26-.032-.509-.095-.745a1.935 1.935 0 0 0-.283-.62 1.326 1.326 0 0 0-1.13-.583c-.248 0-.465.053-.65.158a1.436 1.436 0 0 0-.466.425 1.897 1.897 0 0 0-.281.62 2.926 2.926 0 0 0-.093.745v.107zm5.889-2.7l.029.664a1.961 1.961 0 0 1 1.582-.762c.257 0 .49.035.698.105.209.07.386.183.533.337.146.155.26.354.339.596.08.243.12.536.12.881v3.462h-.904v-3.471c0-.205-.023-.38-.068-.525a.866.866 0 0 0-.203-.354.799.799 0 0 0-.332-.2 1.495 1.495 0 0 0-.456-.064c-.293 0-.55.078-.772.234a1.592 1.592 0 0 0-.517.616v3.764h-.904v-5.283h.855zm5.517 0l.03.664a1.961 1.961 0 0 1 1.582-.762c.257 0 .49.035.698.105.208.07.386.183.532.337.147.155.26.354.34.596.08.243.12.536.12.881v3.462h-.904v-3.471c0-.205-.023-.38-.069-.525a.866.866 0 0 0-.202-.354.799.799 0 0 0-.332-.2 1.495 1.495 0 0 0-.457-.064c-.293 0-.55.078-.771.234a1.592 1.592 0 0 0-.518.616v3.764h-.903v-5.283h.854zm6.856 5.381c-.368 0-.7-.064-.999-.19a2.229 2.229 0 0 1-1.252-1.338 2.973 2.973 0 0 1-.171-1.026v-.205c0-.43.064-.814.193-1.152.128-.339.3-.624.515-.855.215-.23.46-.407.737-.53.277-.122.565-.183.864-.183.378 0 .704.066.977.198s.499.314.676.545c.178.23.309.504.393.82.085.316.127.66.127 1.03v.405h-3.579c.007.245.047.472.12.684.073.212.177.396.312.552a1.466 1.466 0 0 0 1.136.508c.319 0 .589-.065.81-.196a2.02 2.02 0 0 0 .581-.517l.552.43c-.085.13-.187.256-.308.378a2.06 2.06 0 0 1-.422.327 2.222 2.222 0 0 1-.554.23 2.688 2.688 0 0 1-.708.085zm-.113-4.736a1.233 1.233 0 0 0-.912.39 1.538 1.538 0 0 0-.3.474 2.4 2.4 0 0 0-.164.65h2.646v-.07a2.5 2.5 0 0 0-.085-.522 1.419 1.419 0 0 0-.22-.463 1.132 1.132 0 0 0-.383-.332 1.208 1.208 0 0 0-.582-.127zm5.337 3.999a1.36 1.36 0 0 0 .848-.293c.112-.091.203-.2.273-.325a1.01 1.01 0 0 0 .125-.408h.854a1.578 1.578 0 0 1-.193.672c-.115.213-.268.4-.456.561a2.247 2.247 0 0 1-1.45.53c-.398 0-.744-.07-1.038-.212a2.105 2.105 0 0 1-.735-.574 2.43 2.43 0 0 1-.437-.84 3.488 3.488 0 0 1-.144-1.01v-.206c0-.355.048-.692.144-1.01a2.43 2.43 0 0 1 .437-.84c.195-.241.44-.433.732-.574a2.355 2.355 0 0 1 1.036-.213c.309 0 .59.05.842.147.252.098.47.232.654.403.184.17.328.373.432.608.104.234.163.486.176.757h-.854a1.376 1.376 0 0 0-.115-.457 1.197 1.197 0 0 0-.64-.623 1.274 1.274 0 0 0-.495-.092c-.28 0-.512.055-.696.166a1.31 1.31 0 0 0-.445.437 1.83 1.83 0 0 0-.236.61 3.441 3.441 0 0 0-.069.681v.205c0 .235.023.465.069.691.045.226.123.429.234.608.11.18.259.324.444.435.186.11.42.166.703.166zm4.341-5.923v1.28h.987v.697h-.987v3.277a.92.92 0 0 0 .049.33.473.473 0 0 0 .13.192.413.413 0 0 0 .185.09c.07.015.142.022.217.022.075 0 .154-.007.237-.022.083-.014.147-.026.193-.036v.732c-.072.02-.164.041-.278.064a2.153 2.153 0 0 1-.415.034 1.59 1.59 0 0 1-.472-.07.95.95 0 0 1-.388-.238 1.166 1.166 0 0 1-.263-.437 1.98 1.98 0 0 1-.098-.666v-3.272h-.962v-.698h.962v-1.28h.903zm3.023 6.562h-.904v-5.283h.904v5.283zm-.977-6.684a.54.54 0 0 1 .134-.371c.09-.101.223-.152.398-.152.176 0 .31.05.4.152.092.1.137.224.137.37a.516.516 0 0 1-.136.367c-.091.098-.225.146-.4.146-.176 0-.31-.048-.399-.146a.521.521 0 0 1-.134-.366zm2.183 3.994c0-.384.056-.74.168-1.067a2.57 2.57 0 0 1 .479-.852c.206-.241.458-.43.754-.566a2.35 2.35 0 0 1 .996-.206c.375 0 .71.069 1.008.206.298.136.551.325.76.566.208.24.368.525.478.852.111.327.166.683.166 1.067v.107c0 .384-.055.74-.166 1.067-.11.327-.27.61-.478.85a2.19 2.19 0 0 1-.757.561c-.296.135-.63.203-1.001.203-.371 0-.705-.068-1.001-.203a2.202 2.202 0 0 1-.757-.561 2.527 2.527 0 0 1-.48-.85 3.266 3.266 0 0 1-.17-1.067v-.107zm.908.107c0 .264.03.513.093.747a1.9 1.9 0 0 0 .28.618c.126.177.282.318.47.422.186.105.405.157.656.157a1.324 1.324 0 0 0 1.123-.579 1.97 1.97 0 0 0 .28-.618 2.82 2.82 0 0 0 .096-.747v-.107c0-.26-.032-.509-.095-.745a1.935 1.935 0 0 0-.283-.62 1.326 1.326 0 0 0-1.13-.583c-.248 0-.465.053-.65.158a1.436 1.436 0 0 0-.467.425 1.897 1.897 0 0 0-.28.62 2.926 2.926 0 0 0-.093.745v.107zm5.889-2.7l.029.664a1.961 1.961 0 0 1 1.582-.762c.257 0 .49.035.698.105.209.07.386.183.532.337.147.155.26.354.34.596.08.243.12.536.12.881v3.462h-.904v-3.471c0-.205-.023-.38-.068-.525a.866.866 0 0 0-.203-.354.799.799 0 0 0-.332-.2 1.495 1.495 0 0 0-.457-.064c-.292 0-.55.078-.771.234a1.592 1.592 0 0 0-.518.616v3.764h-.903v-5.283h.855z" fill="#757575"/><path stroke="#616161" d="M633.323 207.801v26.8H503.99v-26.133"/><path fill="#616161" d="M630.052 210.452l.585.546 2.686-2.89 2.686 2.89.586-.546-3.273-3.518zm-122.79.667l-.586.546-2.685-2.89-2.686 2.89-.586-.546 3.272-3.518z"/><path d="M366.26 152.599a.852.852 0 0 0-.044-.276.581.581 0 0 0-.174-.244 1.295 1.295 0 0 0-.368-.213 3.809 3.809 0 0 0-.63-.18 5.963 5.963 0 0 1-.791-.22 2.42 2.42 0 0 1-.598-.305 1.258 1.258 0 0 1-.379-.423 1.184 1.184 0 0 1-.131-.571c0-.208.046-.406.139-.593.092-.187.223-.352.393-.493.169-.142.374-.254.615-.337.24-.083.51-.125.806-.125.315 0 .598.043.847.13.249.086.46.204.635.354a1.515 1.515 0 0 1 .534 1.167h-.908a.79.79 0 0 0-.073-.325.885.885 0 0 0-.215-.293 1.108 1.108 0 0 0-.347-.21 1.29 1.29 0 0 0-.473-.08c-.19 0-.35.021-.481.065a.948.948 0 0 0-.325.176.675.675 0 0 0-.186.25.73.73 0 0 0-.01.548.5.5 0 0 0 .186.213c.091.063.216.122.374.176.158.053.362.108.613.163.322.075.602.16.84.254.237.094.434.204.59.33.156.125.273.269.35.432.076.163.114.351.114.566a1.4 1.4 0 0 1-.144.635 1.408 1.408 0 0 1-.413.493 2.025 2.025 0 0 1-.644.32c-.25.076-.53.115-.835.115-.352 0-.662-.05-.93-.147a2.083 2.083 0 0 1-.676-.388 1.645 1.645 0 0 1-.416-.552 1.519 1.519 0 0 1-.141-.637h.903c.01.186.055.341.134.466.08.126.18.227.3.306.121.078.253.133.396.166.143.032.287.048.43.048.186 0 .348-.02.488-.058.14-.04.258-.093.354-.161a.694.694 0 0 0 .218-.242.635.635 0 0 0 .073-.3zm4.272 1.499c-.368 0-.7-.064-.998-.19a2.229 2.229 0 0 1-1.253-1.339 2.973 2.973 0 0 1-.17-1.025v-.205c0-.43.064-.814.192-1.152.129-.339.3-.624.515-.855a2.23 2.23 0 0 1 .738-.53c.276-.122.564-.183.864-.183.378 0 .703.066.976.198.274.132.5.313.677.544.177.231.308.505.393.82.084.316.127.66.127 1.03v.406h-3.58c.007.244.047.472.12.684.074.211.178.395.313.552a1.467 1.467 0 0 0 1.135.507c.32 0 .59-.065.81-.195.222-.13.416-.303.582-.518l.551.43c-.084.13-.187.256-.307.379-.12.122-.261.23-.423.327a2.222 2.222 0 0 1-.554.23 2.688 2.688 0 0 1-.708.085zm-.112-4.737c-.182 0-.35.034-.503.1-.153.067-.29.164-.41.291-.12.127-.22.285-.3.474a2.4 2.4 0 0 0-.164.649h2.646v-.068a2.5 2.5 0 0 0-.085-.523 1.419 1.419 0 0 0-.22-.464 1.132 1.132 0 0 0-.383-.332 1.208 1.208 0 0 0-.581-.127zm5.337 4a1.36 1.36 0 0 0 .847-.294c.112-.09.203-.199.273-.324a1.01 1.01 0 0 0 .125-.408h.854a1.578 1.578 0 0 1-.192.671c-.116.214-.268.4-.457.562a2.247 2.247 0 0 1-1.45.53 2.37 2.37 0 0 1-1.038-.213 2.105 2.105 0 0 1-.735-.573 2.43 2.43 0 0 1-.437-.84 3.488 3.488 0 0 1-.144-1.011v-.205c0-.355.048-.692.144-1.01a2.43 2.43 0 0 1 .437-.84 2.1 2.1 0 0 1 .733-.574 2.355 2.355 0 0 1 1.035-.213c.31 0 .59.049.842.147.253.097.47.232.655.402.183.171.327.374.432.608.104.235.162.487.175.757h-.854a1.375 1.375 0 0 0-.115-.456 1.197 1.197 0 0 0-.64-.623 1.274 1.274 0 0 0-.495-.093c-.28 0-.512.056-.696.166a1.316 1.316 0 0 0-.444.437 1.83 1.83 0 0 0-.237.61 3.441 3.441 0 0 0-.068.682v.205c0 .234.022.465.068.69.046.227.124.43.234.609.111.179.26.324.445.434.185.111.42.166.703.166zm6.377.117a1.683 1.683 0 0 1-.63.456 2.32 2.32 0 0 1-.918.164c-.26 0-.496-.037-.708-.11a1.378 1.378 0 0 1-.547-.347 1.578 1.578 0 0 1-.354-.61 2.866 2.866 0 0 1-.124-.901v-3.413h.903v3.423c0 .237.028.433.083.588a.955.955 0 0 0 .22.366c.09.09.195.152.312.186.117.034.238.051.361.051.368 0 .664-.07.887-.21a1.25 1.25 0 0 0 .49-.561v-3.843h.904V154h-.86l-.02-.522zm4.804-3.95a2.39 2.39 0 0 0-.444-.035c-.312 0-.567.069-.764.205-.197.137-.344.32-.442.552V154h-.903v-5.283h.879l.014.61a1.59 1.59 0 0 1 .513-.517c.205-.127.454-.19.747-.19a1.335 1.335 0 0 1 .4.067v.84zm2.93 4.57c-.368 0-.7-.064-.998-.19a2.229 2.229 0 0 1-1.253-1.339 2.973 2.973 0 0 1-.17-1.025v-.205c0-.43.064-.814.192-1.152.129-.339.3-.624.515-.855a2.22 2.22 0 0 1 .738-.53c.276-.122.564-.183.864-.183.377 0 .703.066.976.198.274.132.5.313.677.544.177.231.308.505.393.82.084.316.127.66.127 1.03v.406h-3.58c.007.244.047.472.12.684.073.211.178.395.313.552a1.467 1.467 0 0 0 1.135.507c.319 0 .59-.065.81-.195.222-.13.416-.303.582-.518l.551.43c-.084.13-.187.256-.307.379-.12.122-.261.23-.423.327a2.222 2.222 0 0 1-.554.23 2.688 2.688 0 0 1-.708.085zm-.112-4.737c-.182 0-.35.034-.503.1-.153.067-.29.164-.41.291-.12.127-.22.285-.3.474a2.4 2.4 0 0 0-.164.649h2.646v-.068a2.5 2.5 0 0 0-.085-.523 1.419 1.419 0 0 0-.22-.464 1.132 1.132 0 0 0-.383-.332 1.208 1.208 0 0 0-.581-.127zm6.919-1.923v1.279h.986v.698h-.986v3.276a.92.92 0 0 0 .049.33.473.473 0 0 0 .129.193.413.413 0 0 0 .186.09c.07.015.142.022.217.022.075 0 .154-.007.237-.022.083-.014.147-.027.193-.036V154c-.072.02-.165.04-.279.063a2.153 2.153 0 0 1-.415.035c-.166 0-.323-.024-.471-.071a.95.95 0 0 1-.388-.237 1.166 1.166 0 0 1-.264-.437 1.98 1.98 0 0 1-.098-.666v-3.272h-.961v-.698h.961v-1.28h.904zm5.303 6.04a1.683 1.683 0 0 1-.63.456 2.32 2.32 0 0 1-.918.164 2.16 2.16 0 0 1-.708-.11 1.378 1.378 0 0 1-.547-.347 1.578 1.578 0 0 1-.354-.61 2.866 2.866 0 0 1-.125-.901v-3.413h.904v3.423c0 .237.027.433.083.588a.955.955 0 0 0 .22.366c.09.09.195.152.312.186.117.034.237.051.361.051.368 0 .663-.07.886-.21.223-.14.387-.327.491-.561v-3.843h.903V154h-.859l-.02-.522zm3.105-4.761l.03.664a1.961 1.961 0 0 1 1.582-.762c.256 0 .49.035.698.105.208.07.385.182.532.337.146.155.26.353.34.596.079.242.119.536.119.881V154h-.904v-3.472c0-.205-.022-.38-.068-.525a.866.866 0 0 0-.203-.354.799.799 0 0 0-.332-.2 1.495 1.495 0 0 0-.456-.063c-.293 0-.55.078-.772.234a1.592 1.592 0 0 0-.517.615V154h-.903v-5.283h.854zm5.518 0l.029.664a2.06 2.06 0 0 1 .683-.56c.267-.134.567-.202.899-.202.257 0 .49.035.698.105.208.07.386.182.532.337.147.155.26.353.34.596.08.242.12.536.12.881V154h-.904v-3.472c0-.205-.023-.38-.068-.525a.866.866 0 0 0-.203-.354.799.799 0 0 0-.332-.2 1.495 1.495 0 0 0-.457-.063c-.292 0-.55.078-.771.234a1.592 1.592 0 0 0-.518.615V154h-.903v-5.283h.855zm6.855 5.38c-.368 0-.7-.063-.998-.19a2.229 2.229 0 0 1-1.253-1.338 2.973 2.973 0 0 1-.17-1.025v-.205c0-.43.063-.814.192-1.152.129-.339.3-.624.515-.855.215-.231.46-.408.737-.53.277-.122.565-.183.865-.183.377 0 .703.066.976.198.274.132.5.313.677.544.177.231.308.505.393.82.084.316.127.66.127 1.03v.406h-3.58c.007.244.047.472.12.684.073.211.178.395.313.552a1.463 1.463 0 0 0 1.135.507c.319 0 .59-.065.81-.195.222-.13.415-.303.581-.518l.552.43c-.084.13-.187.256-.307.379-.12.122-.262.23-.423.327a2.222 2.222 0 0 1-.554.23 2.688 2.688 0 0 1-.708.085zm-.112-4.736c-.183 0-.35.034-.503.1-.153.067-.29.164-.41.291-.12.127-.22.285-.3.474a2.4 2.4 0 0 0-.164.649h2.646v-.068a2.5 2.5 0 0 0-.085-.523 1.419 1.419 0 0 0-.22-.464 1.132 1.132 0 0 0-.383-.332 1.208 1.208 0 0 0-.581-.127zm4.199 4.639h-.903v-7.5h.903v7.5zm-74.806-6.338h-2.285V154h-.932v-6.338h-2.28v-.771h5.497v.771zm6.008 4.082c-.04.335-.121.647-.247.935a2.26 2.26 0 0 1-.52.747c-.221.21-.491.375-.81.493a3.198 3.198 0 0 1-1.119.179c-.42 0-.8-.078-1.142-.235a2.48 2.48 0 0 1-.877-.666 3.071 3.071 0 0 1-.561-1.038 4.342 4.342 0 0 1-.198-1.352v-.713c0-.498.067-.95.2-1.355a3.03 3.03 0 0 1 .572-1.04c.247-.288.547-.511.9-.67.354-.157.75-.236 1.19-.236.4 0 .755.059 1.064.176.31.117.572.28.788.49.217.21.389.461.516.752.127.292.208.613.244.965h-.943a3.192 3.192 0 0 0-.166-.67 1.505 1.505 0 0 0-.31-.507 1.303 1.303 0 0 0-.49-.322 1.966 1.966 0 0 0-.704-.113c-.315 0-.593.061-.832.184-.24.122-.44.293-.6.512-.162.22-.283.485-.364.796a4.031 4.031 0 0 0-.122 1.028v.723c0 .348.036.675.11.981.073.306.184.574.334.803.15.23.34.41.571.542.231.132.505.198.82.198.3 0 .552-.036.757-.107.205-.072.375-.175.51-.31.136-.136.24-.302.315-.498.075-.197.132-.421.171-.672h.943zm2.217-.527V154h-.938v-7.11h2.622c.404 0 .76.054 1.07.162.309.107.568.258.778.451.21.194.37.424.479.689.109.265.163.556.163.871 0 .342-.054.647-.163.916a1.76 1.76 0 0 1-.479.676 2.13 2.13 0 0 1-.779.418 3.61 3.61 0 0 1-1.069.144h-1.684zm0-.767h1.684c.274 0 .509-.034.706-.102.197-.069.358-.164.483-.286.125-.122.217-.267.276-.435a1.67 1.67 0 0 0 .088-.554c0-.182-.03-.359-.088-.53a1.21 1.21 0 0 0-.276-.451 1.35 1.35 0 0 0-.483-.313 1.912 1.912 0 0 0-.706-.117h-1.684v2.788z" fill="#757575"/><path stroke="#616161" d="M631.71 115.205v-14.447H427.325"/><path fill="#616161" d="M634.926 112.762l-.586-.47-2.684 2.49-2.685-2.49-.585.47 3.27 3.032z"/><path d="M345.737 96.662h-2.285V103h-.932v-6.338h-2.28v-.771h5.497v.771zm6.008 4.082c-.04.335-.121.647-.247.935a2.26 2.26 0 0 1-.52.747c-.221.21-.491.375-.81.493a3.198 3.198 0 0 1-1.119.179c-.42 0-.8-.078-1.142-.235a2.48 2.48 0 0 1-.877-.666 3.071 3.071 0 0 1-.561-1.038 4.342 4.342 0 0 1-.198-1.352v-.713c0-.498.067-.95.2-1.355a3.03 3.03 0 0 1 .572-1.04c.247-.288.547-.511.9-.67.354-.157.75-.236 1.19-.236.4 0 .755.059 1.064.176.31.117.572.28.788.49.217.21.389.461.516.752.127.292.208.613.244.965h-.943a3.192 3.192 0 0 0-.166-.67 1.505 1.505 0 0 0-.31-.507 1.303 1.303 0 0 0-.49-.322 1.966 1.966 0 0 0-.704-.113c-.315 0-.593.061-.832.184-.24.122-.44.293-.6.512-.162.22-.283.485-.364.796a4.031 4.031 0 0 0-.122 1.028v.723c0 .348.036.675.11.981.073.306.184.574.334.803.15.23.34.41.571.542.231.132.505.198.82.198.3 0 .552-.036.757-.107.205-.072.375-.175.51-.31.136-.136.24-.302.315-.498.075-.197.132-.421.171-.672h.943zm2.217-.527V103h-.938v-7.11h2.622c.404 0 .76.054 1.07.162.309.107.568.258.778.451.21.194.37.424.479.689.109.265.163.556.163.871 0 .342-.054.647-.163.916a1.76 1.76 0 0 1-.479.676 2.13 2.13 0 0 1-.779.418 3.61 3.61 0 0 1-1.069.144h-1.684zm0-.767h1.684c.274 0 .509-.034.706-.102.197-.069.358-.164.483-.286.125-.122.217-.267.276-.435a1.67 1.67 0 0 0 .088-.554c0-.182-.03-.359-.088-.53a1.21 1.21 0 0 0-.276-.451 1.35 1.35 0 0 0-.483-.313 1.912 1.912 0 0 0-.706-.117h-1.684v2.788zm10.78 2.149a.852.852 0 0 0-.043-.276.581.581 0 0 0-.173-.244 1.295 1.295 0 0 0-.37-.213 3.809 3.809 0 0 0-.629-.18 5.963 5.963 0 0 1-.791-.22 2.42 2.42 0 0 1-.598-.305 1.258 1.258 0 0 1-.379-.423 1.184 1.184 0 0 1-.131-.571c0-.208.046-.406.139-.593a1.52 1.52 0 0 1 .393-.493c.17-.142.374-.254.615-.337.24-.083.51-.125.806-.125.315 0 .598.043.847.13.249.086.46.204.635.354a1.515 1.515 0 0 1 .534 1.167h-.908a.79.79 0 0 0-.073-.325.885.885 0 0 0-.215-.293 1.108 1.108 0 0 0-.347-.21 1.29 1.29 0 0 0-.473-.08c-.19 0-.35.021-.481.065a.948.948 0 0 0-.325.176.675.675 0 0 0-.186.25.73.73 0 0 0-.01.548.5.5 0 0 0 .186.213c.091.063.216.122.374.176.158.053.362.108.613.163.322.075.602.16.84.254.237.094.434.204.59.33.157.125.273.269.35.432.076.163.114.351.114.566a1.4 1.4 0 0 1-.144.635 1.408 1.408 0 0 1-.413.493 2.025 2.025 0 0 1-.644.32c-.25.076-.529.115-.835.115-.352 0-.662-.05-.93-.147a2.083 2.083 0 0 1-.676-.388 1.645 1.645 0 0 1-.415-.552 1.519 1.519 0 0 1-.142-.637h.903c.01.186.055.341.135.466.08.126.18.227.3.306.12.078.252.133.395.166.144.032.287.048.43.048.186 0 .348-.02.488-.058.14-.04.258-.093.354-.161a.694.694 0 0 0 .218-.242.635.635 0 0 0 .073-.3zm3.234-5.162v1.28h.987v.698h-.987v3.276a.92.92 0 0 0 .05.33.473.473 0 0 0 .129.193.413.413 0 0 0 .185.09c.07.015.143.022.218.022.074 0 .153-.007.236-.022.083-.014.148-.027.193-.036V103c-.071.02-.164.04-.278.063a2.153 2.153 0 0 1-.415.035c-.166 0-.323-.024-.471-.071a.95.95 0 0 1-.389-.237 1.166 1.166 0 0 1-.263-.437 1.98 1.98 0 0 1-.098-.666v-3.272h-.962v-.698h.962v-1.28h.903zm5.231 6.563a.978.978 0 0 1-.078-.247 3.947 3.947 0 0 1-.049-.31c-.084.088-.18.172-.285.252a2.046 2.046 0 0 1-.755.351 2.036 2.036 0 0 1-.464.052c-.27 0-.515-.041-.735-.122a1.712 1.712 0 0 1-.561-.332 1.463 1.463 0 0 1-.486-1.109c0-.283.055-.533.166-.75.11-.216.27-.397.476-.544.207-.146.457-.257.75-.332a3.96 3.96 0 0 1 .981-.112h.899v-.415c0-.316-.095-.567-.284-.755-.188-.187-.467-.28-.835-.28-.169 0-.323.022-.463.068-.14.046-.26.107-.36.183a.854.854 0 0 0-.231.266.65.65 0 0 0-.083.318h-.908c0-.19.05-.376.148-.562.1-.185.24-.352.423-.5.182-.148.403-.269.661-.362a2.58 2.58 0 0 1 .867-.139c.287 0 .551.037.794.11.242.073.45.184.622.332.173.148.308.333.405.554.098.222.147.48.147.777v2.456c0 .179.015.367.046.564.031.197.078.367.14.51V103h-.948zm-1.499-.688c.163 0 .316-.023.46-.069.142-.045.273-.105.39-.178.117-.073.219-.157.305-.252.086-.094.154-.192.203-.292v-1.084h-.752c-.518 0-.917.08-1.197.241a.79.79 0 0 0-.42.73.99.99 0 0 0 .064.357c.042.11.107.206.193.285a.96.96 0 0 0 .317.19c.126.048.271.072.437.072zm4.46-4.595l.029.664a2.05 2.05 0 0 1 .683-.56c.267-.134.567-.202.899-.202.257 0 .49.035.698.105.208.07.386.182.532.337.147.155.26.353.34.596.08.242.12.536.12.881V103h-.904v-3.472c0-.205-.023-.38-.068-.525a.866.866 0 0 0-.203-.354.799.799 0 0 0-.332-.2 1.495 1.495 0 0 0-.457-.063c-.293 0-.55.078-.771.234a1.592 1.592 0 0 0-.518.615V103h-.903v-5.283h.854zm4.37 2.597c0-.403.05-.77.15-1.1.099-.331.24-.614.422-.85a1.93 1.93 0 0 1 .657-.55 1.86 1.86 0 0 1 .857-.195c.322 0 .604.055.844.164.241.109.45.266.625.47V95.5h.904v7.5h-.83l-.044-.566a1.781 1.781 0 0 1-.635.493c-.247.114-.539.17-.874.17-.31 0-.592-.066-.847-.2a1.96 1.96 0 0 1-.657-.559 2.663 2.663 0 0 1-.422-.85 3.677 3.677 0 0 1-.15-1.071v-.103zm.904.103c0 .264.027.512.08.745.054.232.138.435.252.608.114.172.259.309.435.41.176.1.385.151.63.151.16 0 .302-.019.43-.056a1.257 1.257 0 0 0 .617-.403c.08-.094.149-.198.207-.312v-2.427a1.726 1.726 0 0 0-.205-.298 1.26 1.26 0 0 0-.615-.393 1.5 1.5 0 0 0-.425-.056c-.247 0-.46.051-.637.154a1.276 1.276 0 0 0-.437.417c-.114.176-.198.38-.251.613-.054.233-.08.48-.08.744v.103zm8.146 2.583a.978.978 0 0 1-.078-.247 4.467 4.467 0 0 1-.05-.31 2.348 2.348 0 0 1-.285.252 2.046 2.046 0 0 1-.754.351 2.036 2.036 0 0 1-.464.052c-.27 0-.515-.041-.735-.122a1.711 1.711 0 0 1-.561-.332 1.463 1.463 0 0 1-.486-1.109c0-.283.055-.533.166-.75.11-.216.27-.397.476-.544.207-.146.456-.257.75-.332.292-.075.62-.112.98-.112h.9v-.415c0-.316-.095-.567-.284-.755-.189-.187-.467-.28-.835-.28-.17 0-.324.022-.464.068a1.2 1.2 0 0 0-.359.183.854.854 0 0 0-.232.266.65.65 0 0 0-.083.318h-.908c0-.19.05-.376.15-.562.098-.185.24-.352.422-.5.182-.148.402-.269.661-.362.259-.092.548-.139.867-.139.286 0 .55.037.793.11.243.073.45.184.623.332.172.148.307.333.405.554.098.222.147.48.147.777v2.456c0 .179.015.367.046.564.03.197.077.367.14.51V103h-.948zm-1.5-.688c.164 0 .317-.023.46-.069.143-.045.273-.105.39-.178a1.41 1.41 0 0 0 .306-.252c.086-.094.153-.192.202-.292v-1.084h-.752c-.517 0-.916.08-1.196.241a.79.79 0 0 0-.42.73.99.99 0 0 0 .064.357c.042.11.106.206.192.285a.96.96 0 0 0 .318.19c.125.048.27.072.437.072zm6.16-3.785a2.39 2.39 0 0 0-.445-.034c-.313 0-.567.069-.764.205-.197.137-.344.32-.442.552V103h-.903v-5.283h.879l.014.61a1.59 1.59 0 0 1 .513-.517c.205-.127.454-.19.747-.19a1.335 1.335 0 0 1 .4.067v.84zm.445 1.787c0-.403.05-.77.149-1.1.1-.331.24-.614.422-.85a1.93 1.93 0 0 1 .657-.55 1.86 1.86 0 0 1 .857-.195c.322 0 .604.055.845.164.24.109.449.266.625.47V95.5h.903v7.5h-.83l-.044-.566a1.772 1.772 0 0 1-.635.493c-.247.114-.539.17-.874.17-.31 0-.592-.066-.847-.2a1.96 1.96 0 0 1-.657-.559 2.663 2.663 0 0 1-.422-.85 3.677 3.677 0 0 1-.15-1.071v-.103zm.903.103c0 .264.027.512.08.745.055.232.138.435.252.608.114.172.26.309.435.41.176.1.386.151.63.151.16 0 .302-.019.43-.056a1.257 1.257 0 0 0 .617-.403c.08-.094.149-.198.208-.312v-2.427a1.726 1.726 0 0 0-.205-.298 1.26 1.26 0 0 0-.616-.393 1.5 1.5 0 0 0-.425-.056c-.247 0-.46.051-.637.154a1.276 1.276 0 0 0-.437.417c-.114.176-.197.38-.251.613-.054.233-.08.48-.08.744v.103zm11.75 0c0 .387-.045.745-.136 1.072-.091.327-.224.61-.398.85a1.845 1.845 0 0 1-.642.558 1.84 1.84 0 0 1-.87.2c-.331 0-.622-.051-.87-.156a1.777 1.777 0 0 1-.643-.454v2.544h-.903v-7.314h.825l.044.586c.18-.222.396-.39.65-.508a2.09 2.09 0 0 1 .883-.176c.332 0 .626.065.882.195.255.13.47.314.647.55.175.236.308.519.397.85.09.33.135.697.135 1.1v.103zm-.903-.103c0-.263-.027-.511-.083-.744a1.877 1.877 0 0 0-.258-.613 1.312 1.312 0 0 0-.445-.417 1.266 1.266 0 0 0-.64-.154c-.152 0-.291.018-.417.053a1.26 1.26 0 0 0-.608.384c-.078.09-.146.186-.205.29v2.525c.059.104.127.2.205.29a1.209 1.209 0 0 0 .61.379c.128.035.27.053.425.053.245 0 .455-.052.633-.156.177-.104.324-.244.442-.42.117-.176.203-.381.258-.617.056-.237.083-.486.083-.75v-.103zm1.74-.004c0-.385.056-.74.168-1.067.113-.327.272-.611.479-.852.207-.241.458-.43.754-.567a2.35 2.35 0 0 1 .996-.205c.375 0 .71.068 1.009.205.298.137.55.326.759.567.208.24.368.525.479.852.11.327.166.682.166 1.067v.107c0 .384-.056.74-.166 1.067a2.5 2.5 0 0 1-.479.85c-.208.239-.46.426-.757.561-.296.135-.63.203-1 .203-.372 0-.706-.068-1.002-.203a2.202 2.202 0 0 1-.757-.562 2.527 2.527 0 0 1-.48-.85 3.266 3.266 0 0 1-.169-1.066v-.107zm.908.107c0 .264.031.513.093.747a1.9 1.9 0 0 0 .28.618c.126.177.282.318.47.422.187.104.406.156.656.156a1.33 1.33 0 0 0 1.124-.578 1.97 1.97 0 0 0 .28-.618c.063-.234.095-.483.095-.747v-.107c0-.26-.032-.51-.095-.745a1.935 1.935 0 0 0-.283-.62 1.326 1.326 0 0 0-1.13-.583c-.248 0-.464.052-.65.158a1.436 1.436 0 0 0-.466.425 1.898 1.898 0 0 0-.281.62 2.926 2.926 0 0 0-.093.745v.107zm7.516-1.89a2.39 2.39 0 0 0-.444-.034c-.313 0-.567.069-.764.205-.197.137-.345.32-.442.552V103h-.904v-5.283h.88l.014.61a1.59 1.59 0 0 1 .513-.517c.205-.127.454-.19.747-.19a1.335 1.335 0 0 1 .4.067v.84zm2.228-2.09v1.28h.986v.698h-.986v3.276a.92.92 0 0 0 .049.33.473.473 0 0 0 .13.193.413.413 0 0 0 .185.09c.07.015.142.022.217.022.075 0 .154-.007.237-.022.083-.014.147-.027.193-.036V103c-.072.02-.165.04-.279.063a2.153 2.153 0 0 1-.415.035c-.166 0-.323-.024-.47-.071a.95.95 0 0 1-.39-.237 1.166 1.166 0 0 1-.263-.437 1.98 1.98 0 0 1-.097-.666v-3.272h-.962v-.698h.962v-1.28h.903z" fill="#757575"/><g><path fill="#E2F3EB" d="M59.657 301.6h10v-10h-10z"/><path fill="#B3E5FC" d="M172.657 301.267h10v-10h-10z"/></g></g></svg>