<?xml version="1.0" encoding="UTF-8" standalone="no"?>
<!DOCTYPE svg PUBLIC "-//W3C//DTD SVG 1.1//EN"
 "http://www.w3.org/Graphics/SVG/1.1/DTD/svg11.dtd">
<!-- Generated by graphviz version 2.44.1 (20200629.0846)
 -->
<!-- Title: NAIS Pages: 1 -->
<svg width="523pt" height="451pt"
 viewBox="0.00 0.00 522.74 451.00" xmlns="http://www.w3.org/2000/svg" xmlns:xlink="http://www.w3.org/1999/xlink">
<g id="graph0" class="graph" transform="scale(1 1) rotate(0) translate(4 447)">
<title>NAIS</title>
<polygon fill="white" stroke="transparent" points="-4,4 -4,-447 518.74,-447 518.74,4 -4,4"/>
<!-- application -->
<g id="node1" class="node">
<title>application</title>
<ellipse fill="none" stroke="black" cx="321.09" cy="-425" rx="50.09" ry="18"/>
<text text-anchor="middle" x="321.09" y="-421.3" font-family="Times,serif" font-size="14.00">application</text>
</g>
<!-- deployment -->
<g id="node2" class="node">
<title>deployment</title>
<ellipse fill="none" stroke="black" cx="261.09" cy="-265" rx="52.79" ry="18"/>
<text text-anchor="middle" x="261.09" y="-261.3" font-family="Times,serif" font-size="14.00">deployment</text>
</g>
<!-- application&#45;&gt;deployment -->
<g id="edge1" class="edge">
<title>application&#45;&gt;deployment</title>
<path fill="none" stroke="black" d="M314.67,-407.09C304.26,-379.68 283.62,-325.31 271.21,-292.65"/>
<polygon fill="black" stroke="black" points="274.47,-291.37 267.65,-283.27 267.93,-293.86 274.47,-291.37"/>
</g>
<!-- horizontalPodAutoscaler -->
<g id="node3" class="node">
<title>horizontalPodAutoscaler</title>
<ellipse fill="none" stroke="black" cx="157.09" cy="-352" rx="98.28" ry="18"/>
<text text-anchor="middle" x="157.09" y="-348.3" font-family="Times,serif" font-size="14.00">horizontalPodAutoscaler</text>
</g>
<!-- application&#45;&gt;horizontalPodAutoscaler -->
<g id="edge2" class="edge">
<title>application&#45;&gt;horizontalPodAutoscaler</title>
<path fill="none" stroke="black" d="M290.25,-410.65C265.68,-400.01 230.91,-384.96 203.06,-372.9"/>
<polygon fill="black" stroke="black" points="204.09,-369.53 193.53,-368.77 201.31,-375.96 204.09,-369.53"/>
</g>
<!-- service -->
<g id="node4" class="node">
<title>service</title>
<ellipse fill="none" stroke="black" cx="367.09" cy="-265" rx="36" ry="18"/>
<text text-anchor="middle" x="367.09" y="-261.3" font-family="Times,serif" font-size="14.00">service</text>
</g>
<!-- application&#45;&gt;service -->
<g id="edge3" class="edge">
<title>application&#45;&gt;service</title>
<path fill="none" stroke="black" d="M323.82,-406.86C326.93,-388.59 332.57,-358.92 340.09,-334 344.35,-319.89 350.29,-304.61 355.52,-292.11"/>
<polygon fill="black" stroke="black" points="358.8,-293.33 359.51,-282.76 352.36,-290.59 358.8,-293.33"/>
</g>
<!-- serviceAccount -->
<g id="node5" class="node">
<title>serviceAccount</title>
<ellipse fill="none" stroke="black" cx="449.09" cy="-18" rx="65.79" ry="18"/>
<text text-anchor="middle" x="449.09" y="-14.3" font-family="Times,serif" font-size="14.00">serviceAccount</text>
</g>
<!-- application&#45;&gt;serviceAccount -->
<g id="edge4" class="edge">
<title>application&#45;&gt;serviceAccount</title>
<path fill="none" stroke="black" d="M366.94,-417.57C403.67,-409.53 449.09,-391.75 449.09,-353 449.09,-353 449.09,-353 449.09,-104 449.09,-84.75 449.09,-63.05 449.09,-46.4"/>
<polygon fill="black" stroke="black" points="452.59,-46.26 449.09,-36.26 445.59,-46.26 452.59,-46.26"/>
</g>
<!-- ingress -->
<g id="node11" class="node">
<title>ingress</title>
<ellipse fill="none" stroke="black" cx="385.09" cy="-352" rx="36" ry="18"/>
<text text-anchor="middle" x="385.09" y="-348.3" font-family="Times,serif" font-size="14.00">ingress</text>
</g>
<!-- application&#45;&gt;ingress -->
<g id="edge14" class="edge">
<title>application&#45;&gt;ingress</title>
<path fill="none" stroke="black" d="M335.94,-407.53C344.29,-398.26 354.87,-386.53 364.06,-376.33"/>
<polygon fill="black" stroke="black" points="366.67,-378.66 370.77,-368.89 361.47,-373.97 366.67,-378.66"/>
</g>
<!-- replicaSet -->
<g id="node6" class="node">
<title>replicaSet</title>
<ellipse fill="none" stroke="black" cx="261.09" cy="-192" rx="46.29" ry="18"/>
<text text-anchor="middle" x="261.09" y="-188.3" font-family="Times,serif" font-size="14.00">replicaSet</text>
</g>
<!-- deployment&#45;&gt;replicaSet -->
<g id="edge5" class="edge">
<title>deployment&#45;&gt;replicaSet</title>
<path fill="none" stroke="black" d="M261.09,-246.81C261.09,-238.79 261.09,-229.05 261.09,-220.07"/>
<polygon fill="black" stroke="black" points="264.59,-220.03 261.09,-210.03 257.59,-220.03 264.59,-220.03"/>
</g>
<!-- horizontalPodAutoscaler&#45;&gt;deployment -->
<g id="edge8" class="edge">
<title>horizontalPodAutoscaler&#45;&gt;deployment</title>
<path fill="none" stroke="black" d="M177.64,-334.21C193.61,-321.15 215.93,-302.91 233.47,-288.58"/>
<polygon fill="black" stroke="black" points="236.12,-290.93 241.64,-281.9 231.69,-285.51 236.12,-290.93"/>
<text text-anchor="middle" x="232.59" y="-304.8" font-family="Times,serif" font-size="14.00">scales</text>
</g>
<!-- endpoint -->
<g id="node8" class="node">
<title>endpoint</title>
<ellipse fill="none" stroke="black" cx="367.09" cy="-192" rx="41.69" ry="18"/>
<text text-anchor="middle" x="367.09" y="-188.3" font-family="Times,serif" font-size="14.00">endpoint</text>
</g>
<!-- service&#45;&gt;endpoint -->
<g id="edge7" class="edge">
<title>service&#45;&gt;endpoint</title>
<path fill="none" stroke="black" d="M367.09,-246.81C367.09,-238.79 367.09,-229.05 367.09,-220.07"/>
<polygon fill="black" stroke="black" points="370.59,-220.03 367.09,-210.03 363.59,-220.03 370.59,-220.03"/>
</g>
<!-- pod -->
<g id="node7" class="node">
<title>pod</title>
<ellipse fill="none" stroke="black" cx="279.09" cy="-105" rx="27" ry="18"/>
<text text-anchor="middle" x="279.09" y="-101.3" font-family="Times,serif" font-size="14.00">pod</text>
</g>
<!-- replicaSet&#45;&gt;pod -->
<g id="edge6" class="edge">
<title>replicaSet&#45;&gt;pod</title>
<path fill="none" stroke="black" d="M264.73,-173.8C267.22,-162.09 270.55,-146.34 273.38,-132.97"/>
<polygon fill="black" stroke="black" points="276.87,-133.39 275.52,-122.89 270.02,-131.94 276.87,-133.39"/>
<text text-anchor="middle" x="287.59" y="-144.8" font-family="Times,serif" font-size="14.00">scales</text>
</g>
<!-- pod&#45;&gt;serviceAccount -->
<g id="edge11" class="edge">
<title>pod&#45;&gt;serviceAccount</title>
<path fill="none" stroke="grey" stroke-dasharray="1,5" d="M300.28,-93.41C327.62,-79.74 375.7,-55.69 409.81,-38.64"/>
<polygon fill="grey" stroke="grey" points="411.65,-41.63 419.03,-34.03 408.52,-35.37 411.65,-41.63"/>
<text text-anchor="middle" x="394.59" y="-57.8" font-family="Times,serif" font-size="14.00">mounts</text>
</g>
<!-- caBundle -->
<g id="node9" class="node">
<title>caBundle</title>
<ellipse fill="none" stroke="black" cx="87.09" cy="-18" rx="87.18" ry="18"/>
<text text-anchor="middle" x="87.09" y="-14.3" font-family="Times,serif" font-size="14.00">configMap: caBundle</text>
</g>
<!-- pod&#45;&gt;caBundle -->
<g id="edge12" class="edge">
<title>pod&#45;&gt;caBundle</title>
<path fill="none" stroke="grey" stroke-dasharray="1,5" d="M257.07,-94.25C226.65,-80.78 171.08,-56.18 131.78,-38.78"/>
<polygon fill="grey" stroke="grey" points="132.72,-35.37 122.16,-34.52 129.89,-41.77 132.72,-35.37"/>
<text text-anchor="middle" x="215.59" y="-57.8" font-family="Times,serif" font-size="14.00">mounts</text>
</g>
<!-- gcpCredential -->
<g id="node10" class="node">
<title>gcpCredential</title>
<ellipse fill="none" stroke="black" cx="279.09" cy="-18" rx="86.38" ry="18"/>
<text text-anchor="middle" x="279.09" y="-14.3" font-family="Times,serif" font-size="14.00">secret: gcp&#45;credential</text>
</g>
<!-- pod&#45;&gt;gcpCredential -->
<g id="edge13" class="edge">
<title>pod&#45;&gt;gcpCredential</title>
<path fill="none" stroke="grey" stroke-dasharray="1,5" d="M279.09,-86.8C279.09,-75.16 279.09,-59.55 279.09,-46.24"/>
<polygon fill="grey" stroke="grey" points="282.59,-46.18 279.09,-36.18 275.59,-46.18 282.59,-46.18"/>
<text text-anchor="middle" x="299.59" y="-57.8" font-family="Times,serif" font-size="14.00">mounts</text>
</g>
<!-- endpoint&#45;&gt;pod -->
<g id="edge9" class="edge">
<title>endpoint&#45;&gt;pod</title>
<path fill="none" stroke="grey" stroke-dasharray="1,5" d="M350.95,-175.41C337.09,-162.02 316.97,-142.59 301.54,-127.68"/>
<polygon fill="grey" stroke="grey" points="303.58,-124.79 293.96,-120.36 298.72,-129.82 303.58,-124.79"/>
<text text-anchor="middle" x="350.09" y="-144.8" font-family="Times,serif" font-size="14.00">watches</text>
</g>
<!-- ingress&#45;&gt;service -->
<g id="edge10" class="edge">
<title>ingress&#45;&gt;service</title>
<path fill="none" stroke="grey" stroke-dasharray="1,5" d="M381.45,-333.8C378.99,-322.16 375.68,-306.55 372.86,-293.24"/>
<polygon fill="grey" stroke="grey" points="376.23,-292.23 370.73,-283.18 369.38,-293.68 376.23,-292.23"/>
<text text-anchor="middle" x="399.09" y="-304.8" font-family="Times,serif" font-size="14.00">watches</text>
</g>
</g>
</svg>
