<svg width="256" height="270" viewBox="0 0 256 270" fill="none" xmlns="http://www.w3.org/2000/svg">
<g clip-path="url(#clip0_2380_134582)">
<path d="M254.63 178.18C248.57 167.86 242.6 158.19 236.4 147.95C207.76 147.95 150.18 147.96 150.18 147.96C150.18 147.96 120.12 148 105.34 147.95L104.79 149.1C97.96 160.88 91.03 172.48 84.31 184.32L82.65 187.22C82.65 187.22 81.86 188.61 81.72 188.82C81.65 188.93 81.47 189.23 81.35 189.54C81.24 189.81 81.17 190.07 81.14 190.23C81.04 190.57 81.06 191.27 81.06 191.27L81.08 191.53L125.91 191.33V191.32C125.93 191.32 125.94 191.32 125.96 191.32C125.94 190.81 126 189.84 126.25 189.41C132.89 177.9 139.46 166.04 146.28 154.64C146.99 153.45 148.87 152.15 150.29 152.13C162.94 151.96 177.62 152.21 190.27 152.21C193.57 152.21 193.99 154.22 195.06 155.77C201.04 164.44 206.04 173.44 211.96 182.15C212.95 183.6 214.14 184.97 215.69 185C227.27 185.26 239.13 185.13 250.72 185.05C254.71 185.02 256.72 181.74 254.63 178.18Z" fill="#008026"/>
<path d="M174.31 106.77L170.43 113.44C171.43 113.44 174.06 113.48 174.06 113.48L203.13 113.32C204.29 113.31 205.59 113.27 206.8 113.3C206.8 113.3 209.13 113.34 211.29 113.28C211.99 113.26 212.96 113.24 213.55 113.34C214.13 113.44 214.49 113.61 214.82 113.79C215.07 113.92 215.21 114.02 215.38 114.15C215.67 114.36 216.02 114.61 216.45 115.29C216.45 115.29 229.8 137.27 236.41 148.14L149.92 147.97L105.39 148.14L113.86 133.53L129.41 106.76L130.11 105.56C130.11 105.56 160.13 105.56 175.01 105.56L174.31 106.77Z" fill="#FEEC00"/>
<path d="M235.41 235.43L223.55 255.35C223.55 255.35 219.24 262.26 217.46 265.63C217.24 266.05 217.04 266.38 216.78 266.78C216.57 267.09 216.35 267.35 216.06 267.71C215.77 268.07 215.32 268.31 214.94 268.56C214.06 269.12 213.5 269.18 211.9 269.12C211.9 269.12 210.96 269.12 210.5 269.12C183.11 269.27 128.15 269.12 128.15 269.12C126.79 269.1 126.48 268.92 125.75 268.54C125.59 268.46 125.01 268.01 124.75 267.75C124.38 267.37 124.23 267.11 124.23 267.11C117.76 256.37 111.72 245.27 105.57 234.33H106.46C106.46 234.33 126.11 234.32 136.36 234.33C169.25 234.35 203.09 234.29 235.97 234.33L235.41 235.43Z" fill="#750786"/>
<path d="M235.38 234.32C202.49 234.28 169.61 234.34 136.72 234.32C126.47 234.31 105.55 234.32 105.55 234.32L105.52 234.27C97.69 220.85 89.74 207.42 81.96 193.97C81.7 193.52 81.41 192.92 81.23 192.36C81.08 191.92 81.05 191.27 81.05 191.27C96.16 191.27 125.96 191.32 125.96 191.32C125.96 191.32 125.95 191.89 126.18 192.56C126.41 193.23 126.59 193.41 126.84 193.87C128.35 196.61 130.07 199.38 131.58 202.04C136.36 210.44 146.05 226.71 146.05 226.71C146.05 226.71 146.51 227.69 147.3 228.53C147.58 228.82 147.84 229 148.22 229.24C149.24 229.88 150.6 229.82 151.43 229.84L189.4 229.83C191.37 229.86 191.7 229.67 192.48 229.35C194.02 228.71 195.2 226.27 195.2 226.27C196.05 224.85 196.79 223.63 197.29 222.79C201.93 214.95 207.1 207.27 211.76 199.42C213.4 196.65 214.79 196 217.7 196C227.96 196.02 238.23 195.86 248.49 196.13C249.54 196.16 251.39 195.91 252.65 196.29C253.9 196.67 254.56 197.68 254.96 198.47C255.28 199.1 255.66 199.97 255.52 200.92C255.31 202.34 254.36 203.93 253.71 205.06C248.06 214.9 241.79 224.59 235.96 234.32H235.38Z" fill="#004DFE"/>
<path d="M184.59 89.09C189.86 79.96 200.48 61.78 200.48 61.78C185.62 61.75 171.18 61.63 156.32 61.6H155.66C151.02 69.44 146.23 77.54 141.66 85.42C137.96 91.79 133.75 99.13 130.12 105.54C130.12 105.54 160.11 105.59 174.98 105.59L184.59 89.09Z" fill="#FE8B00"/>
<path d="M200.51 61.73C185.65 61.7 170.4 61.83 155.54 61.81L156.09 60.87C160.58 52.88 165.36 45.03 169.89 37.07C172.62 32.28 175.47 27.55 178.23 22.78C178.71 21.91 179.11 20.94 179.85 20.47C180.99 19.75 182.1 19.91 183.07 20.69C183.57 21.09 183.82 21.79 184.3 22.62C190.35 33.08 196.29 43.62 202.43 54.02C204.04 56.84 202.12 58.98 200.51 61.73Z" fill="#E30303"/>
<path d="M117.14 105.55H105.64C108.81 91 112.09 76.36 115.26 61.81H140.41L117.14 105.55Z" fill="#FE8B00"/>
<path d="M89.52 61.81C93.6 65.34 99.01 70.4 99.01 70.4C99.85 71.06 100.49 71.6 100.92 72.05C101.25 72.39 101.46 72.63 101.7 73.46C101.96 74.34 101.65 75.5 101.45 76.37C101.15 77.74 100.56 80.56 100.56 80.56C98.96 88.76 97.15 97.38 95.39 105.54C90.41 105.54 86.09 105.54 81.12 105.54C81.12 91.04 81.12 76.3 81.12 61.8H89.52V61.81Z" fill="#FE8B00"/>
<path d="M140.41 61.81C131.87 61.75 115.26 61.81 115.26 61.81C117.65 50.27 120.35 38.5 122.91 27.01C123.07 26.3 123.28 25.23 123.64 24.85C123.88 24.59 124.17 24.42 124.48 24.33C124.86 24.22 125.28 24.24 125.72 24.41C126.23 24.6 126.84 25.51 127.37 26.11C132.06 31.38 141 42.3 141 42.3L144.31 46.23C144.96 47.01 146.19 48.26 146.3 49.45C146.42 50.66 145.89 51.5 145.42 52.36C143.98 55.04 141.08 60.53 141.08 60.53L140.41 61.81Z" fill="#E30303"/>
<path d="M81.12 105.55C86.1 105.55 90.42 105.55 95.39 105.55C92.46 119.78 89.38 133.91 86.45 148.13C84.41 148.13 83.15 148.13 81.11 148.13C81.11 133.9 81.12 119.77 81.12 105.55Z" fill="#FEEC00"/>
<path d="M105.64 105.55H117.15L110.48 118.16L102.29 133.51L100.92 136.07C100.47 136.63 100.07 136.52 99.88 136.48C99.57 136.41 98.88 136.14 99.15 135.07L99.6 132.98C101.66 123.77 103.46 114.73 105.64 105.55Z" fill="#FEEC00"/>
<path d="M81.11 148.13C83.15 148.13 84.43 148.13 86.47 148.13L84.29 158.55L83.98 160.02C83.93 160.2 83.87 160.34 83.84 160.41C83.59 160.93 83.04 161.11 82.81 161.13C82.36 161.16 81.87 161.16 81.34 160.49C81.19 160.3 81.13 159.85 81.13 159.85C81.13 159.85 81.06 151.64 81.11 148.13Z" fill="#008026"/>
<path d="M89.52 61.81H81.12V58.99C81.12 58.99 81.11 58.06 81.12 57.65C81.13 57.34 81.24 57.11 81.28 57.03C81.37 56.83 81.37 56.82 81.53 56.67C81.72 56.48 81.89 56.35 82.21 56.26C82.55 56.15 82.85 56.17 83.19 56.28C83.49 56.38 83.73 56.6 84 56.84C85.23 57.92 87.85 60.31 87.85 60.31C87.85 60.31 88.99 61.33 89.52 61.81Z" fill="#E30303"/>
</g>
<path d="M69.7856 96.5C52.4995 87.5 22.4995 107.717 22.4995 107.717C22.4995 107.717 57.7594 38.614 81.4996 31C81.4996 31 102.5 18.8309 128 15C153.5 11.1691 184.417 18.8309 184.417 18.8309C204.417 21.8096 214.499 94.5 214.499 94.5L69.7856 143.5C69.7856 143.5 87.0718 105.5 69.7856 96.5Z" fill="#C30000"/>
<circle r="16" transform="matrix(-0.976856 0.2139 0.2139 0.976856 30.0516 102.052)" fill="white"/>
<path d="M215.999 102L72.9994 151" stroke="white" stroke-width="30" stroke-linecap="round"/>
<defs>
<clipPath id="clip0_2380_134582">
<rect width="174.52" height="249.18" fill="white" transform="translate(81 20)"/>
</clipPath>
</defs>
</svg>
