<svg width="254" height="263" viewBox="0 0 254 263" fill="none" xmlns="http://www.w3.org/2000/svg">
<g clip-path="url(#clip0_2380_134580)">
<path d="M252.63 171.18C246.57 160.86 240.6 151.19 234.4 140.95C205.76 140.95 148.18 140.96 148.18 140.96C148.18 140.96 118.12 141 103.34 140.95L102.79 142.1C95.96 153.88 89.03 165.48 82.31 177.32L80.65 180.22C80.65 180.22 79.86 181.61 79.72 181.82C79.65 181.93 79.47 182.23 79.35 182.54C79.24 182.81 79.17 183.07 79.14 183.23C79.04 183.57 79.06 184.27 79.06 184.27L79.08 184.53L123.91 184.33V184.32C123.93 184.32 123.94 184.32 123.96 184.32C123.94 183.81 124 182.84 124.25 182.41C130.89 170.9 137.46 159.04 144.28 147.64C144.99 146.45 146.87 145.15 148.29 145.13C160.94 144.96 175.62 145.21 188.27 145.21C191.57 145.21 191.99 147.22 193.06 148.77C199.04 157.44 204.04 166.44 209.96 175.15C210.95 176.6 212.14 177.97 213.69 178C225.27 178.26 237.13 178.13 248.72 178.05C252.71 178.02 254.72 174.74 252.63 171.18Z" fill="#008026"/>
<path d="M172.31 99.77L168.43 106.44C169.43 106.44 172.06 106.48 172.06 106.48L201.13 106.32C202.29 106.31 203.59 106.27 204.8 106.3C204.8 106.3 207.13 106.34 209.29 106.28C209.99 106.26 210.96 106.24 211.55 106.34C212.13 106.44 212.49 106.61 212.82 106.79C213.07 106.92 213.21 107.02 213.38 107.15C213.67 107.36 214.02 107.61 214.45 108.29C214.45 108.29 227.8 130.27 234.41 141.14L147.92 140.97L103.39 141.14L111.86 126.53L127.41 99.76L128.11 98.56C128.11 98.56 158.13 98.56 173.01 98.56L172.31 99.77Z" fill="#FEEC00"/>
<path d="M233.41 228.43L221.55 248.35C221.55 248.35 217.24 255.26 215.46 258.63C215.24 259.05 215.04 259.38 214.78 259.78C214.57 260.09 214.35 260.35 214.06 260.71C213.77 261.07 213.32 261.31 212.94 261.56C212.06 262.12 211.5 262.18 209.9 262.12C209.9 262.12 208.96 262.12 208.5 262.12C181.11 262.27 126.15 262.12 126.15 262.12C124.79 262.1 124.48 261.92 123.75 261.54C123.59 261.46 123.01 261.01 122.75 260.75C122.38 260.37 122.23 260.11 122.23 260.11C115.76 249.37 109.72 238.27 103.57 227.33H104.46C104.46 227.33 124.11 227.32 134.36 227.33C167.25 227.35 201.09 227.29 233.97 227.33L233.41 228.43Z" fill="#750786"/>
<path d="M233.38 227.32C200.49 227.28 167.61 227.34 134.72 227.32C124.47 227.31 103.55 227.32 103.55 227.32L103.52 227.27C95.69 213.85 87.74 200.42 79.96 186.97C79.7 186.52 79.41 185.92 79.23 185.36C79.08 184.92 79.05 184.27 79.05 184.27C94.16 184.27 123.96 184.32 123.96 184.32C123.96 184.32 123.95 184.89 124.18 185.56C124.41 186.23 124.59 186.41 124.84 186.87C126.35 189.61 128.07 192.38 129.58 195.04C134.36 203.44 144.05 219.71 144.05 219.71C144.05 219.71 144.51 220.69 145.3 221.53C145.58 221.82 145.84 222 146.22 222.24C147.24 222.88 148.6 222.82 149.43 222.84L187.4 222.83C189.37 222.86 189.7 222.67 190.48 222.35C192.02 221.71 193.2 219.27 193.2 219.27C194.05 217.85 194.79 216.63 195.29 215.79C199.93 207.95 205.1 200.27 209.76 192.42C211.4 189.65 212.79 189 215.7 189C225.96 189.02 236.23 188.86 246.49 189.13C247.54 189.16 249.39 188.91 250.65 189.29C251.9 189.67 252.56 190.68 252.96 191.47C253.28 192.1 253.66 192.97 253.52 193.92C253.31 195.34 252.36 196.93 251.71 198.06C246.06 207.9 239.79 217.59 233.96 227.32H233.38Z" fill="#004DFE"/>
<path d="M182.59 82.09C187.86 72.96 198.48 54.78 198.48 54.78C183.62 54.75 169.18 54.63 154.32 54.6H153.66C149.02 62.44 144.23 70.54 139.66 78.42C135.96 84.79 131.75 92.13 128.12 98.54C128.12 98.54 158.11 98.59 172.98 98.59L182.59 82.09Z" fill="#FE8B00"/>
<path d="M198.51 54.73C183.65 54.7 168.4 54.83 153.54 54.81L154.09 53.87C158.58 45.88 163.36 38.03 167.89 30.07C170.62 25.28 173.47 20.55 176.23 15.78C176.71 14.91 177.11 13.94 177.85 13.47C178.99 12.75 180.1 12.91 181.07 13.69C181.57 14.09 181.82 14.79 182.3 15.62C188.35 26.08 194.29 36.62 200.43 47.02C202.04 49.84 200.12 51.98 198.51 54.73Z" fill="#E30303"/>
<path d="M115.14 98.55H103.64C106.81 84 110.09 69.36 113.26 54.81H138.41L115.14 98.55Z" fill="#FE8B00"/>
<path d="M87.52 54.81C91.6 58.34 97.01 63.4 97.01 63.4C97.85 64.06 98.49 64.6 98.92 65.05C99.25 65.39 99.46 65.63 99.7 66.46C99.96 67.34 99.65 68.5 99.45 69.37C99.15 70.74 98.56 73.56 98.56 73.56C96.96 81.76 95.15 90.38 93.39 98.54C88.41 98.54 84.09 98.54 79.12 98.54C79.12 84.04 79.12 69.3 79.12 54.8H87.52V54.81Z" fill="#FE8B00"/>
<path d="M138.41 54.81C129.87 54.75 113.26 54.81 113.26 54.81C115.65 43.27 118.35 31.5 120.91 20.01C121.07 19.3 121.28 18.23 121.64 17.85C121.88 17.59 122.17 17.42 122.48 17.33C122.86 17.22 123.28 17.24 123.72 17.41C124.23 17.6 124.84 18.51 125.37 19.11C130.06 24.38 139 35.3 139 35.3L142.31 39.23C142.96 40.01 144.19 41.26 144.3 42.45C144.42 43.66 143.89 44.5 143.42 45.36C141.98 48.04 139.08 53.53 139.08 53.53L138.41 54.81Z" fill="#E30303"/>
<path d="M79.12 98.55C84.1 98.55 88.42 98.55 93.39 98.55C90.46 112.78 87.38 126.91 84.45 141.13C82.41 141.13 81.15 141.13 79.11 141.13C79.11 126.9 79.12 112.77 79.12 98.55Z" fill="#FEEC00"/>
<path d="M103.64 98.55H115.15L108.48 111.16L100.29 126.51L98.92 129.07C98.47 129.63 98.07 129.52 97.88 129.48C97.57 129.41 96.88 129.14 97.15 128.07L97.6 125.98C99.66 116.77 101.46 107.73 103.64 98.55Z" fill="#FEEC00"/>
<path d="M79.11 141.13C81.15 141.13 82.43 141.13 84.47 141.13L82.29 151.55L81.98 153.02C81.93 153.2 81.87 153.34 81.84 153.41C81.59 153.93 81.04 154.11 80.81 154.13C80.36 154.16 79.87 154.16 79.34 153.49C79.19 153.3 79.13 152.85 79.13 152.85C79.13 152.85 79.06 144.64 79.11 141.13Z" fill="#008026"/>
<path d="M87.52 54.81H79.12V51.99C79.12 51.99 79.11 51.06 79.12 50.65C79.13 50.34 79.24 50.11 79.28 50.03C79.37 49.83 79.37 49.82 79.53 49.67C79.72 49.48 79.89 49.35 80.21 49.26C80.55 49.15 80.85 49.17 81.19 49.28C81.49 49.38 81.73 49.6 82 49.84C83.23 50.92 85.85 53.31 85.85 53.31C85.85 53.31 86.99 54.33 87.52 54.81Z" fill="#E30303"/>
</g>
<path d="M20.5 100.717C20.5 100.717 50.5 80.5 67.7861 89.5C85.0723 98.5 67.7861 136.5 67.7861 136.5L212.5 87.5C212.5 87.5 201 14.4787 181 11.5C157.5 8 161 30 151.5 30C142 30 146.559 15.7147 127.365 15.15C112.718 13.5895 115 41 103 45.5C69 41 76.8842 62.1885 65 66C41.2598 73.614 20.5 100.717 20.5 100.717Z" fill="#C30000"/>
<circle r="16" transform="matrix(-0.976856 0.2139 0.2139 0.976856 28.052 95.0521)" fill="white"/>
<path d="M214 95L70.9999 144" stroke="white" stroke-width="30" stroke-linecap="round"/>
<defs>
<clipPath id="clip0_2380_134580">
<rect width="174.52" height="249.18" fill="white" transform="translate(79 13)"/>
</clipPath>
</defs>
</svg>
